<?xml version="1.0" encoding="UTF-8"?>
<!DOCTYPE svg PUBLIC "-//W3C//DTD SVG 1.1//EN" "http://www.w3.org/Graphics/SVG/1.1/DTD/svg11.dtd">
<svg version="1.2" width="16.52mm" height="16.52mm" viewBox="3523 1978 1652 1652" preserveAspectRatio="xMidYMid" fill-rule="evenodd" stroke-width="28.222" stroke-linejoin="round" xmlns="http://www.w3.org/2000/svg" xmlns:ooo="http://xml.openoffice.org/svg/export" xmlns:xlink="http://www.w3.org/1999/xlink" xmlns:presentation="http://sun.com/xmlns/staroffice/presentation" xmlns:smil="http://www.w3.org/2001/SMIL20/" xmlns:anim="urn:oasis:names:tc:opendocument:xmlns:animation:1.0" xml:space="preserve">
 <defs class="EmbeddedBulletChars">
  <g id="bullet-char-template-57356" transform="scale(0.00048828125,-0.00048828125)">
   <path d="M 580,1141 L 1163,571 580,0 -4,571 580,1141 Z"/>
  </g>
  <g id="bullet-char-template-57354" transform="scale(0.00048828125,-0.00048828125)">
   <path d="M 8,1128 L 1137,1128 1137,0 8,0 8,1128 Z"/>
  </g>
  <g id="bullet-char-template-10146" transform="scale(0.00048828125,-0.00048828125)">
   <path d="M 174,0 L 602,739 174,1481 1456,739 174,0 Z M 1358,739 L 309,1346 659,739 1358,739 Z"/>
  </g>
  <g id="bullet-char-template-10132" transform="scale(0.00048828125,-0.00048828125)">
   <path d="M 2015,739 L 1276,0 717,0 1260,543 174,543 174,936 1260,936 717,1481 1274,1481 2015,739 Z"/>
  </g>
  <g id="bullet-char-template-10007" transform="scale(0.00048828125,-0.00048828125)">
   <path d="M 0,-2 C -7,14 -16,27 -25,37 L 356,567 C 262,823 215,952 215,954 215,979 228,992 255,992 264,992 276,990 289,987 310,991 331,999 354,1012 L 381,999 492,748 772,1049 836,1024 860,1049 C 881,1039 901,1025 922,1006 886,937 835,863 770,784 769,783 710,716 594,584 L 774,223 C 774,196 753,168 711,139 L 727,119 C 717,90 699,76 672,76 641,76 570,178 457,381 L 164,-76 C 142,-110 111,-127 72,-127 30,-127 9,-110 8,-76 1,-67 -2,-52 -2,-32 -2,-23 -1,-13 0,-2 Z"/>
  </g>
  <g id="bullet-char-template-10004" transform="scale(0.00048828125,-0.00048828125)">
   <path d="M 285,-33 C 182,-33 111,30 74,156 52,228 41,333 41,471 41,549 55,616 82,672 116,743 169,778 240,778 293,778 328,747 346,684 L 369,508 C 377,444 397,411 428,410 L 1163,1116 C 1174,1127 1196,1133 1229,1133 1271,1133 1292,1118 1292,1087 L 1292,965 C 1292,929 1282,901 1262,881 L 442,47 C 390,-6 338,-33 285,-33 Z"/>
  </g>
  <g id="bullet-char-template-9679" transform="scale(0.00048828125,-0.00048828125)">
   <path d="M 813,0 C 632,0 489,54 383,161 276,268 223,411 223,592 223,773 276,916 383,1023 489,1130 632,1184 813,1184 992,1184 1136,1130 1245,1023 1353,916 1407,772 1407,592 1407,412 1353,268 1245,161 1136,54 992,0 813,0 Z"/>
  </g>
  <g id="bullet-char-template-8226" transform="scale(0.00048828125,-0.00048828125)">
   <path d="M 346,457 C 273,457 209,483 155,535 101,586 74,649 74,723 74,796 101,859 155,911 209,963 273,989 346,989 419,989 480,963 531,910 582,859 608,796 608,723 608,648 583,586 532,535 482,483 420,457 346,457 Z"/>
  </g>
  <g id="bullet-char-template-8211" transform="scale(0.00048828125,-0.00048828125)">
   <path d="M -4,459 L 1135,459 1135,606 -4,606 -4,459 Z"/>
  </g>
  <g id="bullet-char-template-61548" transform="scale(0.00048828125,-0.00048828125)">
   <path d="M 173,740 C 173,903 231,1043 346,1159 462,1274 601,1332 765,1332 928,1332 1067,1274 1183,1159 1299,1043 1357,903 1357,740 1357,577 1299,437 1183,322 1067,206 928,148 765,148 601,148 462,206 346,322 231,437 173,577 173,740 Z"/>
  </g>
 </defs>
 <g class="Page">
  <g class="com.sun.star.drawing.CustomShape">
   <g id="id3">
    <rect class="BoundingBox" stroke="none" fill="none" x="3523" y="1978" width="1652" height="1652"/>
    <path fill="rgb(238,238,238)" fill-opacity="0.502" stroke="rgb(255,255,255)" stroke-opacity="0.502" d="M 3848,2053 L 3848,2053 C 3804,2053 3761,2065 3723,2087 3685,2108 3653,2140 3632,2178 3610,2216 3598,2259 3598,2303 L 3598,3303 3598,3304 C 3598,3348 3610,3391 3632,3429 3653,3467 3685,3499 3723,3520 3761,3542 3804,3554 3848,3554 L 4848,3554 4849,3554 C 4893,3554 4936,3542 4974,3520 5012,3499 5044,3467 5065,3429 5087,3391 5099,3348 5099,3304 L 5099,2303 5099,2303 5099,2303 C 5099,2259 5087,2216 5065,2178 5044,2140 5012,2108 4974,2087 4936,2065 4893,2053 4849,2053 L 3848,2053 Z"/>
    <path fill="none" stroke="rgb(167,169,172)" stroke-width="150" stroke-linejoin="round" d="M 3848,2053 L 3848,2053 C 3804,2053 3761,2065 3723,2087 3685,2108 3653,2140 3632,2178 3610,2216 3598,2259 3598,2303 L 3598,3303 3598,3304 C 3598,3348 3610,3391 3632,3429 3653,3467 3685,3499 3723,3520 3761,3542 3804,3554 3848,3554 L 4848,3554 4849,3554 C 4893,3554 4936,3542 4974,3520 5012,3499 5044,3467 5065,3429 5087,3391 5099,3348 5099,3304 L 5099,2303 5099,2303 5099,2303 C 5099,2259 5087,2216 5065,2178 5044,2140 5012,2108 4974,2087 4936,2065 4893,2053 4849,2053 L 3848,2053 Z"/>
   </g>
  </g>
  <g class="com.sun.star.drawing.LineShape">
   <g id="id4">
    <rect class="BoundingBox" stroke="none" fill="none" x="3676" y="2888" width="1307" height="111"/>
    <path fill="none" stroke="rgb(0,0,0)" stroke-width="100" stroke-linejoin="round" d="M 3726,2938 L 4932,2948"/>
   </g>
  </g>
  <g class="com.sun.star.drawing.LineShape">
   <g id="id5">
    <rect class="BoundingBox" stroke="none" fill="none" x="3665" y="3111" width="1307" height="111"/>
    <path fill="none" stroke="rgb(0,0,0)" stroke-width="100" stroke-linejoin="round" d="M 3715,3161 L 4921,3171"/>
   </g>
  </g>
  <g class="com.sun.star.drawing.LineShape">
   <g id="id6">
    <rect class="BoundingBox" stroke="none" fill="none" x="3676" y="2688" width="1307" height="111"/>
    <path fill="none" stroke="rgb(0,0,0)" stroke-width="100" stroke-linejoin="round" d="M 3726,2738 L 4932,2748"/>
   </g>
  </g>
  <g class="com.sun.star.drawing.LineShape">
   <g id="id7">
    <rect class="BoundingBox" stroke="none" fill="none" x="3676" y="2488" width="1307" height="111"/>
    <path fill="none" stroke="rgb(0,0,0)" stroke-width="100" stroke-linejoin="round" d="M 3726,2538 L 4932,2548"/>
   </g>
  </g>
  <g class="com.sun.star.drawing.LineShape">
   <g id="id8">
    <rect class="BoundingBox" stroke="none" fill="none" x="3676" y="2288" width="1307" height="111"/>
    <path fill="none" stroke="rgb(0,0,0)" stroke-width="100" stroke-linejoin="round" d="M 3726,2338 L 4932,2348"/>
   </g>
  </g>
 </g>
</svg>