<?xml version="1.0" encoding="UTF-8"?>
<!DOCTYPE svg PUBLIC "-//W3C//DTD SVG 1.1//EN" "http://www.w3.org/Graphics/SVG/1.1/DTD/svg11.dtd">
<svg version="1.2" width="16.52mm" height="16.52mm" viewBox="3533 6912 1652 1652" preserveAspectRatio="xMidYMid" fill-rule="evenodd" stroke-width="28.222" stroke-linejoin="round" xmlns="http://www.w3.org/2000/svg" xmlns:ooo="http://xml.openoffice.org/svg/export" xmlns:xlink="http://www.w3.org/1999/xlink" xmlns:presentation="http://sun.com/xmlns/staroffice/presentation" xmlns:smil="http://www.w3.org/2001/SMIL20/" xmlns:anim="urn:oasis:names:tc:opendocument:xmlns:animation:1.0" xml:space="preserve">
 <defs class="EmbeddedBulletChars">
  <g id="bullet-char-template-57356" transform="scale(0.00048828125,-0.00048828125)">
   <path d="M 580,1141 L 1163,571 580,0 -4,571 580,1141 Z"/>
  </g>
  <g id="bullet-char-template-57354" transform="scale(0.00048828125,-0.00048828125)">
   <path d="M 8,1128 L 1137,1128 1137,0 8,0 8,1128 Z"/>
  </g>
  <g id="bullet-char-template-10146" transform="scale(0.00048828125,-0.00048828125)">
   <path d="M 174,0 L 602,739 174,1481 1456,739 174,0 Z M 1358,739 L 309,1346 659,739 1358,739 Z"/>
  </g>
  <g id="bullet-char-template-10132" transform="scale(0.00048828125,-0.00048828125)">
   <path d="M 2015,739 L 1276,0 717,0 1260,543 174,543 174,936 1260,936 717,1481 1274,1481 2015,739 Z"/>
  </g>
  <g id="bullet-char-template-10007" transform="scale(0.00048828125,-0.00048828125)">
   <path d="M 0,-2 C -7,14 -16,27 -25,37 L 356,567 C 262,823 215,952 215,954 215,979 228,992 255,992 264,992 276,990 289,987 310,991 331,999 354,1012 L 381,999 492,748 772,1049 836,1024 860,1049 C 881,1039 901,1025 922,1006 886,937 835,863 770,784 769,783 710,716 594,584 L 774,223 C 774,196 753,168 711,139 L 727,119 C 717,90 699,76 672,76 641,76 570,178 457,381 L 164,-76 C 142,-110 111,-127 72,-127 30,-127 9,-110 8,-76 1,-67 -2,-52 -2,-32 -2,-23 -1,-13 0,-2 Z"/>
  </g>
  <g id="bullet-char-template-10004" transform="scale(0.00048828125,-0.00048828125)">
   <path d="M 285,-33 C 182,-33 111,30 74,156 52,228 41,333 41,471 41,549 55,616 82,672 116,743 169,778 240,778 293,778 328,747 346,684 L 369,508 C 377,444 397,411 428,410 L 1163,1116 C 1174,1127 1196,1133 1229,1133 1271,1133 1292,1118 1292,1087 L 1292,965 C 1292,929 1282,901 1262,881 L 442,47 C 390,-6 338,-33 285,-33 Z"/>
  </g>
  <g id="bullet-char-template-9679" transform="scale(0.00048828125,-0.00048828125)">
   <path d="M 813,0 C 632,0 489,54 383,161 276,268 223,411 223,592 223,773 276,916 383,1023 489,1130 632,1184 813,1184 992,1184 1136,1130 1245,1023 1353,916 1407,772 1407,592 1407,412 1353,268 1245,161 1136,54 992,0 813,0 Z"/>
  </g>
  <g id="bullet-char-template-8226" transform="scale(0.00048828125,-0.00048828125)">
   <path d="M 346,457 C 273,457 209,483 155,535 101,586 74,649 74,723 74,796 101,859 155,911 209,963 273,989 346,989 419,989 480,963 531,910 582,859 608,796 608,723 608,648 583,586 532,535 482,483 420,457 346,457 Z"/>
  </g>
  <g id="bullet-char-template-8211" transform="scale(0.00048828125,-0.00048828125)">
   <path d="M -4,459 L 1135,459 1135,606 -4,606 -4,459 Z"/>
  </g>
  <g id="bullet-char-template-61548" transform="scale(0.00048828125,-0.00048828125)">
   <path d="M 173,740 C 173,903 231,1043 346,1159 462,1274 601,1332 765,1332 928,1332 1067,1274 1183,1159 1299,1043 1357,903 1357,740 1357,577 1299,437 1183,322 1067,206 928,148 765,148 601,148 462,206 346,322 231,437 173,577 173,740 Z"/>
  </g>
 </defs>
 <g class="Page">
  <g class="com.sun.star.drawing.CustomShape">
   <g id="id3">
    <rect class="BoundingBox" stroke="none" fill="none" x="3533" y="6912" width="1652" height="1652"/>
    <path fill="rgb(237,237,237)" fill-opacity="0.502" stroke="rgb(255,255,255)" stroke-opacity="0.502" d="M 3858,6987 L 3858,6987 C 3814,6987 3771,6999 3733,7021 3695,7042 3663,7074 3642,7112 3620,7150 3608,7193 3608,7237 L 3608,8237 3608,8238 C 3608,8282 3620,8325 3642,8363 3663,8401 3695,8433 3733,8454 3771,8476 3814,8488 3858,8488 L 4858,8488 4859,8488 C 4903,8488 4946,8476 4984,8454 5022,8433 5054,8401 5075,8363 5097,8325 5109,8282 5109,8238 L 5109,7237 5109,7237 5109,7237 C 5109,7193 5097,7150 5075,7112 5054,7074 5022,7042 4984,7021 4946,6999 4903,6987 4859,6987 L 3858,6987 Z"/>
    <path fill="none" stroke="rgb(167,169,172)" stroke-width="150" stroke-linejoin="round" d="M 3858,6987 L 3858,6987 C 3814,6987 3771,6999 3733,7021 3695,7042 3663,7074 3642,7112 3620,7150 3608,7193 3608,7237 L 3608,8237 3608,8238 C 3608,8282 3620,8325 3642,8363 3663,8401 3695,8433 3733,8454 3771,8476 3814,8488 3858,8488 L 4858,8488 4859,8488 C 4903,8488 4946,8476 4984,8454 5022,8433 5054,8401 5075,8363 5097,8325 5109,8282 5109,8238 L 5109,7237 5109,7237 5109,7237 C 5109,7193 5097,7150 5075,7112 5054,7074 5022,7042 4984,7021 4946,6999 4903,6987 4859,6987 L 3858,6987 Z"/>
   </g>
  </g>
  <g class="com.sun.star.drawing.LineShape">
   <g id="id4">
    <rect class="BoundingBox" stroke="none" fill="none" x="3685" y="7244" width="694" height="101"/>
    <path fill="none" stroke="rgb(95,95,95)" stroke-width="100" stroke-linejoin="round" d="M 3735,7294 L 4328,7294"/>
   </g>
  </g>
  <g class="com.sun.star.drawing.LineShape">
   <g id="id5">
    <rect class="BoundingBox" stroke="none" fill="none" x="3686" y="7487" width="694" height="101"/>
    <path fill="none" stroke="rgb(95,95,95)" stroke-width="100" stroke-linejoin="round" d="M 3736,7537 L 4329,7537"/>
   </g>
  </g>
  <g class="com.sun.star.drawing.LineShape">
   <g id="id6">
    <rect class="BoundingBox" stroke="none" fill="none" x="3697" y="7699" width="694" height="101"/>
    <path fill="none" stroke="rgb(95,95,95)" stroke-width="100" stroke-linejoin="round" d="M 3747,7749 L 4340,7749"/>
   </g>
  </g>
  <g class="com.sun.star.drawing.LineShape">
   <g id="id7">
    <rect class="BoundingBox" stroke="none" fill="none" x="3686" y="7922" width="1307" height="111"/>
    <path fill="none" stroke="rgb(2,164,156)" stroke-width="100" stroke-linejoin="round" d="M 3736,7972 L 4942,7982"/>
   </g>
  </g>
  <g class="com.sun.star.drawing.LineShape">
   <g id="id8">
    <rect class="BoundingBox" stroke="none" fill="none" x="3686" y="7244" width="694" height="101"/>
    <path fill="none" stroke="rgb(0,7,176)" stroke-width="100" stroke-linejoin="round" d="M 3736,7294 L 4329,7294"/>
   </g>
  </g>
  <g class="com.sun.star.drawing.LineShape">
   <g id="id9">
    <rect class="BoundingBox" stroke="none" fill="none" x="3675" y="8145" width="1307" height="111"/>
    <path fill="none" stroke="rgb(237,105,36)" stroke-width="100" stroke-linejoin="round" d="M 3725,8195 L 4931,8205"/>
   </g>
  </g>
  <g class="Graphic">
   <g id="id10">
    <rect class="BoundingBox" stroke="none" fill="none" x="4389" y="7220" width="626" height="626"/>
    <defs>
     <clipPath id="clip_path_1" clipPathUnits="userSpaceOnUse">
      <path d="M 4828,7489 C 4842,7493 4851,7500 4856,7509 4859,7515 4860,7520 4860,7524 4860,7530 4858,7533 4858,7534 4855,7546 4845,7553 4838,7559 4838,7559 4832,7564 4831,7564 4838,7566 4918,7590 4918,7590 4918,7590 4894,7668 4892,7675 4893,7675 4894,7675 4895,7674 4917,7663 4933,7667 4937,7669 L 4937,7669 C 4937,7669 4966,7680 4956,7714 4952,7728 4946,7737 4936,7742 4924,7748 4912,7744 4912,7744 4900,7740 4893,7731 4887,7724 4887,7724 4881,7717 4881,7717 4881,7717 4880,7717 4880,7716 4878,7723 4854,7803 4854,7803 L 4760,7775 4762,7772 4764,7767 C 4764,7767 4773,7760 4773,7760 4779,7754 4787,7748 4790,7738 4790,7738 4794,7728 4789,7718 4785,7710 4777,7705 4765,7701 4736,7693 4727,7716 4727,7717 4727,7717 4720,7731 4732,7754 4734,7758 4734,7761 4734,7763 L 4733,7767 4641,7739 4669,7646 4672,7647 4678,7650 C 4678,7650 4686,7658 4686,7658 4691,7665 4697,7673 4707,7676 4708,7676 4717,7679 4727,7674 4735,7670 4741,7662 4744,7650 4752,7622 4729,7613 4729,7613 4728,7612 4714,7606 4692,7618 4687,7620 4683,7620 4680,7619 L 4677,7618 4705,7527 C 4705,7527 4781,7549 4789,7552 4789,7551 4789,7551 4788,7550 4782,7539 4781,7529 4781,7522 4781,7514 4783,7509 4783,7508 4783,7508 4794,7480 4828,7489 L 4828,7489 Z"/>
     </clipPath>
    </defs>
    <g clip-path="url(#clip_path_1)">
     <path fill="rgb(205,50,50)" stroke="none" d="M 4710,7883 L 4727,7873 4575,7599 4557,7609 4710,7883 Z"/>
     <path fill="rgb(205,50,50)" stroke="none" d="M 4710,7883 L 4741,7866 4588,7591 4557,7609 4710,7883 Z"/>
     <path fill="rgb(207,53,53)" stroke="none" d="M 4723,7876 L 4754,7858 4602,7584 4570,7601 4723,7876 Z"/>
     <path fill="rgb(209,55,55)" stroke="none" d="M 4736,7868 L 4768,7851 4615,7577 4584,7594 4736,7868 Z"/>
     <path fill="rgb(211,58,58)" stroke="none" d="M 4750,7861 L 4781,7843 4629,7569 4597,7586 4750,7861 Z"/>
     <path fill="rgb(213,60,60)" stroke="none" d="M 4763,7853 L 4795,7836 4642,7562 4611,7579 4763,7853 Z"/>
     <path fill="rgb(215,63,63)" stroke="none" d="M 4777,7846 L 4808,7828 4655,7554 4624,7572 4777,7846 Z"/>
     <path fill="rgb(216,65,65)" stroke="none" d="M 4790,7838 L 4822,7821 4669,7547 4638,7564 4790,7838 Z"/>
     <path fill="rgb(218,68,68)" stroke="none" d="M 4804,7831 L 4835,7813 4682,7539 4651,7557 4804,7831 Z"/>
     <path fill="rgb(220,70,70)" stroke="none" d="M 4817,7823 L 4848,7806 4696,7532 4664,7549 4817,7823 Z"/>
     <path fill="rgb(222,73,73)" stroke="none" d="M 4831,7816 L 4862,7799 4709,7524 4678,7542 4831,7816 Z"/>
     <path fill="rgb(224,75,75)" stroke="none" d="M 4844,7809 L 4875,7791 4723,7517 4691,7534 4844,7809 Z"/>
     <path fill="rgb(226,78,78)" stroke="none" d="M 4857,7801 L 4889,7784 4736,7509 4705,7527 4857,7801 Z"/>
     <path fill="rgb(228,80,80)" stroke="none" d="M 4871,7794 L 4902,7776 4750,7502 4718,7519 4871,7794 Z"/>
     <path fill="rgb(230,82,82)" stroke="none" d="M 4884,7786 L 4916,7769 4763,7494 4732,7512 4884,7786 Z"/>
     <path fill="rgb(232,85,85)" stroke="none" d="M 4898,7779 L 4929,7761 4776,7487 4745,7504 4898,7779 Z"/>
     <path fill="rgb(234,88,88)" stroke="none" d="M 4911,7771 L 4943,7754 4790,7479 4758,7497 4911,7771 Z"/>
     <path fill="rgb(236,90,90)" stroke="none" d="M 4925,7764 L 4956,7746 4803,7472 4772,7489 4925,7764 Z"/>
     <path fill="rgb(237,92,92)" stroke="none" d="M 4938,7756 L 4969,7739 4817,7464 4785,7482 4938,7756 Z"/>
     <path fill="rgb(239,95,95)" stroke="none" d="M 4951,7749 L 4983,7731 4830,7457 4799,7474 4951,7749 Z"/>
     <path fill="rgb(241,98,98)" stroke="none" d="M 4965,7741 L 4996,7724 4844,7449 4812,7467 4965,7741 Z"/>
     <path fill="rgb(243,100,100)" stroke="none" d="M 4978,7734 L 5010,7716 4857,7442 4826,7459 4978,7734 Z"/>
     <path fill="rgb(245,102,102)" stroke="none" d="M 4992,7726 L 5023,7709 4870,7434 4839,7452 4992,7726 Z"/>
    </g>
    <path fill="rgb(188,0,0)" stroke="none" d="M 4829,7486 L 4829,7486 4829,7486 C 4844,7491 4854,7498 4859,7508 4865,7521 4862,7533 4861,7535 4857,7548 4847,7555 4840,7561 4839,7562 4838,7562 4837,7563 L 4916,7587 4921,7588 4920,7594 4897,7670 C 4906,7666 4915,7663 4924,7663 4932,7663 4937,7666 4938,7666 4940,7667 4947,7670 4953,7677 4959,7684 4965,7696 4959,7715 L 4959,7715 4959,7715 C 4951,7744 4932,7748 4921,7748 4915,7748 4911,7747 4911,7747 4911,7747 4911,7747 4911,7747 4898,7743 4890,7733 4885,7726 4883,7724 4882,7723 4881,7722 L 4858,7801 4856,7807 4850,7805 4763,7779 4757,7777 4759,7771 C 4759,7769 4760,7767 4762,7765 L 4762,7765 4762,7765 C 4764,7762 4767,7760 4771,7757 4777,7752 4785,7746 4787,7737 L 4787,7737 4788,7737 C 4788,7737 4790,7728 4786,7719 4782,7712 4775,7707 4764,7704 4760,7703 4757,7702 4753,7702 4736,7702 4730,7717 4730,7718 L 4730,7718 4730,7718 4730,7718 C 4730,7719 4724,7731 4735,7752 L 4735,7752 4735,7753 C 4737,7757 4737,7761 4737,7764 L 4735,7771 4729,7769 4643,7743 4637,7741 4639,7735 4665,7648 4667,7643 4673,7644 C 4675,7645 4677,7646 4680,7647 L 4680,7647 4680,7648 C 4683,7650 4685,7653 4688,7656 4693,7663 4699,7670 4708,7673 L 4708,7673 4708,7673 C 4708,7673 4711,7674 4715,7674 4727,7674 4736,7666 4741,7650 4744,7639 4743,7630 4737,7623 4733,7618 4727,7616 4727,7616 L 4727,7616 4727,7615 4727,7616 C 4727,7615 4723,7614 4717,7614 4710,7614 4701,7616 4693,7621 L 4693,7621 4692,7621 C 4689,7622 4687,7623 4684,7623 4682,7623 4681,7622 4679,7622 L 4674,7620 4675,7614 4701,7529 4703,7523 4709,7524 4783,7547 C 4773,7525 4779,7510 4780,7507 4781,7504 4790,7484 4815,7484 4820,7484 4824,7485 4829,7486 Z M 4827,7492 C 4823,7491 4819,7490 4815,7490 4793,7490 4786,7510 4786,7510 4786,7510 4784,7514 4784,7522 4784,7529 4785,7538 4791,7549 4792,7551 4793,7553 4793,7555 4793,7555 4793,7556 4793,7556 L 4787,7554 4786,7554 4707,7530 4681,7616 C 4682,7616 4683,7617 4684,7617 4686,7617 4688,7616 4690,7615 4701,7609 4710,7608 4717,7608 4725,7608 4730,7610 4730,7610 4730,7610 4749,7617 4749,7639 4749,7643 4748,7647 4747,7651 4740,7676 4725,7680 4715,7680 4710,7680 4706,7679 4706,7679 4690,7674 4684,7659 4676,7652 4675,7651 4673,7651 4671,7650 L 4645,7737 4731,7763 C 4731,7762 4731,7762 4731,7761 4731,7759 4730,7757 4730,7755 4724,7744 4722,7735 4722,7728 4722,7720 4724,7715 4724,7715 4724,7715 4731,7696 4753,7696 4757,7696 4761,7697 4766,7698 4790,7705 4795,7720 4795,7730 4795,7735 4793,7739 4793,7739 4789,7755 4773,7762 4767,7769 4766,7770 4765,7772 4765,7773 L 4852,7799 4878,7712 C 4879,7713 4881,7713 4883,7714 4890,7721 4897,7736 4913,7741 4913,7741 4916,7742 4921,7742 4931,7742 4946,7738 4953,7713 4955,7709 4955,7705 4955,7701 4955,7679 4936,7672 4936,7672 4936,7672 4932,7670 4924,7670 4917,7670 4908,7671 4897,7677 4896,7678 4895,7678 4895,7678 4894,7678 4894,7678 4894,7678 4893,7678 4892,7679 4891,7679 4890,7679 4889,7678 4888,7678 L 4914,7592 4833,7568 4833,7568 4827,7566 C 4827,7565 4828,7564 4829,7563 4835,7556 4850,7549 4855,7533 4855,7533 4856,7529 4856,7524 4856,7515 4852,7500 4827,7492 Z"/>
    <path fill="rgb(255,255,255)" fill-opacity="0.298" stroke="rgb(255,255,255)" stroke-opacity="0.298" d="M 4707,7530 L 4779,7552 C 4779,7552 4779,7553 4779,7553 4780,7556 4781,7558 4781,7560 L 4705,7538 4707,7530 Z M 4855,7533 C 4850,7549 4835,7556 4829,7563 4828,7564 4827,7565 4827,7566 L 4914,7592 4888,7678 C 4889,7678 4890,7679 4891,7678 4889,7679 4887,7680 4885,7681 4881,7683 4878,7683 4876,7682 L 4902,7597 4815,7571 C 4815,7569 4816,7568 4817,7567 4823,7560 4838,7553 4843,7537 4843,7537 4853,7508 4815,7496 4809,7495 4803,7494 4798,7495 4805,7491 4814,7489 4827,7492 4865,7503 4855,7533 4855,7533 Z M 4671,7650 C 4673,7651 4675,7651 4676,7652 4684,7659 4690,7674 4706,7679 4706,7679 4712,7681 4719,7680 4707,7688 4694,7683 4694,7683 4681,7679 4674,7668 4668,7660 L 4671,7650 Z M 4684,7617 C 4688,7615 4691,7614 4694,7613 4693,7614 4691,7615 4690,7615 4688,7616 4686,7616 4684,7617 Z M 4737,7701 C 4727,7707 4724,7715 4724,7715 4724,7715 4717,7731 4730,7755 4731,7758 4731,7761 4731,7763 L 4717,7759 C 4705,7735 4712,7720 4712,7720 4712,7720 4718,7703 4737,7701 Z M 4875,7723 L 4852,7799 4842,7796 4866,7716 C 4867,7717 4869,7718 4871,7719 4872,7720 4873,7721 4875,7723 Z M 4953,7713 C 4947,7735 4934,7741 4925,7742 4931,7738 4938,7731 4941,7718 4950,7686 4924,7676 4924,7676 4924,7676 4915,7672 4901,7675 4922,7665 4936,7672 4936,7672 4936,7672 4962,7681 4953,7713 Z"/>
    <defs>
     <clipPath id="clip_path_2" clipPathUnits="userSpaceOnUse">
      <path d="M 4589,7493 L 4588,7495 4585,7502 C 4585,7502 4577,7509 4577,7509 4570,7514 4562,7521 4559,7531 4559,7531 4556,7541 4561,7551 4565,7558 4573,7564 4585,7568 4613,7575 4622,7553 4622,7552 4623,7551 4629,7537 4617,7515 4615,7510 4615,7507 4616,7504 L 4617,7501 4709,7528 C 4709,7528 4686,7604 4683,7612 4684,7612 4684,7612 4685,7612 4710,7599 4726,7606 4727,7607 4727,7607 4755,7617 4746,7652 4742,7665 4735,7675 4726,7680 4714,7686 4702,7682 4701,7682 4689,7678 4682,7669 4677,7662 4677,7662 4671,7655 4671,7655 4669,7661 4645,7741 4645,7741 4645,7741 4567,7718 4560,7716 4560,7717 4560,7718 4561,7719 4567,7730 4569,7740 4569,7747 4569,7755 4566,7760 4566,7761 4566,7761 4555,7789 4521,7780 4507,7776 4498,7769 4493,7760 4491,7754 4490,7749 4490,7745 4490,7739 4491,7736 4491,7735 4495,7723 4504,7716 4511,7711 4511,7711 4518,7704 4518,7704 4518,7704 4519,7704 4519,7703 4513,7701 4432,7677 4432,7677 L 4460,7584 4463,7585 4468,7588 C 4468,7588 4476,7596 4476,7596 4481,7603 4487,7611 4497,7614 4498,7614 4507,7617 4517,7612 4525,7608 4531,7600 4534,7588 4542,7560 4520,7551 4519,7551 4518,7550 4504,7544 4482,7556 4477,7557 4474,7558 4472,7557 L 4468,7556 4496,7465 4589,7493 Z"/>
     </clipPath>
    </defs>
    <g clip-path="url(#clip_path_2)">
     <path fill="rgb(98,148,213)" stroke="none" d="M 4632,7383 L 4590,7408 4752,7677 4793,7652 4632,7383 Z"/>
     <path fill="rgb(98,148,213)" stroke="none" d="M 4606,7399 L 4579,7415 4740,7684 4767,7668 4606,7399 Z"/>
     <path fill="rgb(96,145,209)" stroke="none" d="M 4594,7406 L 4567,7422 4728,7691 4756,7675 4594,7406 Z"/>
     <path fill="rgb(93,142,205)" stroke="none" d="M 4582,7413 L 4555,7429 4717,7698 4744,7682 4582,7413 Z"/>
     <path fill="rgb(91,138,201)" stroke="none" d="M 4571,7420 L 4544,7436 4705,7705 4732,7689 4571,7420 Z"/>
     <path fill="rgb(89,135,196)" stroke="none" d="M 4559,7427 L 4532,7443 4693,7712 4721,7696 4559,7427 Z"/>
     <path fill="rgb(86,132,192)" stroke="none" d="M 4548,7434 L 4520,7450 4682,7719 4709,7703 4548,7434 Z"/>
     <path fill="rgb(84,129,188)" stroke="none" d="M 4536,7441 L 4509,7457 4670,7726 4697,7710 4536,7441 Z"/>
     <path fill="rgb(81,126,184)" stroke="none" d="M 4524,7448 L 4497,7464 4658,7733 4686,7717 4524,7448 Z"/>
     <path fill="rgb(79,122,180)" stroke="none" d="M 4513,7455 L 4485,7471 4647,7740 4674,7724 4513,7455 Z"/>
     <path fill="rgb(77,119,176)" stroke="none" d="M 4501,7462 L 4474,7478 4635,7747 4662,7731 4501,7462 Z"/>
     <path fill="rgb(74,116,171)" stroke="none" d="M 4489,7469 L 4462,7485 4623,7754 4651,7738 4489,7469 Z"/>
     <path fill="rgb(72,113,167)" stroke="none" d="M 4478,7476 L 4450,7492 4612,7761 4639,7745 4478,7476 Z"/>
     <path fill="rgb(70,109,163)" stroke="none" d="M 4466,7483 L 4439,7499 4600,7768 4627,7752 4466,7483 Z"/>
     <path fill="rgb(67,106,159)" stroke="none" d="M 4454,7490 L 4427,7506 4588,7775 4616,7759 4454,7490 Z"/>
     <path fill="rgb(65,103,155)" stroke="none" d="M 4443,7497 L 4415,7513 4577,7782 4604,7766 4443,7497 Z"/>
     <path fill="rgb(62,100,151)" stroke="none" d="M 4431,7504 L 4404,7520 4565,7789 4592,7773 4431,7504 Z"/>
     <path fill="rgb(60,97,146)" stroke="none" d="M 4419,7511 L 4392,7527 4553,7796 4581,7780 4419,7511 Z"/>
     <path fill="rgb(58,93,142)" stroke="none" d="M 4408,7518 L 4380,7534 4542,7803 4569,7787 4408,7518 Z"/>
     <path fill="rgb(55,90,138)" stroke="none" d="M 4396,7525 L 4369,7541 4530,7810 4557,7794 4396,7525 Z"/>
     <path fill="rgb(53,87,134)" stroke="none" d="M 4384,7532 L 4347,7554 4509,7823 4546,7801 4384,7532 Z"/>
    </g>
    <path fill="rgb(61,98,148)" stroke="none" d="M 4494,7461 L 4500,7463 4587,7489 4592,7490 4591,7496 C 4590,7498 4589,7501 4588,7503 L 4588,7504 4587,7504 C 4585,7507 4582,7509 4579,7511 4572,7517 4565,7522 4562,7532 L 4562,7532 4562,7532 C 4562,7532 4559,7541 4564,7549 4567,7556 4575,7561 4586,7565 4586,7565 4585,7565 4585,7565 4589,7566 4593,7566 4596,7566 4614,7566 4619,7551 4619,7551 L 4620,7551 4620,7550 4620,7550 C 4620,7550 4625,7537 4614,7517 L 4614,7516 4614,7516 C 4612,7511 4612,7506 4613,7503 L 4615,7497 4621,7499 4707,7525 4712,7526 4711,7532 4688,7607 C 4697,7603 4705,7601 4713,7601 4721,7601 4726,7603 4728,7604 4728,7604 4728,7604 4728,7604 4728,7604 4728,7604 4728,7604 4728,7604 4728,7604 4728,7604 4728,7604 4728,7604 4728,7604 4728,7604 4728,7604 4728,7604 4728,7604 4728,7604 4728,7604 4730,7605 4736,7607 4742,7614 4748,7621 4754,7633 4749,7653 L 4749,7653 4749,7653 C 4740,7682 4721,7686 4711,7686 4705,7686 4701,7685 4700,7685 4700,7685 4701,7685 4701,7685 4687,7681 4680,7671 4674,7664 4673,7663 4673,7662 4672,7661 L 4649,7739 4647,7745 4641,7743 4565,7720 C 4576,7743 4570,7759 4569,7762 4568,7765 4559,7785 4534,7785 4530,7785 4525,7784 4520,7783 L 4520,7783 4520,7783 C 4506,7779 4496,7771 4490,7761 4484,7749 4488,7736 4488,7735 4492,7721 4502,7714 4509,7708 4511,7707 4512,7706 4513,7705 L 4434,7681 4428,7679 4430,7673 4456,7586 4458,7580 4464,7582 C 4466,7583 4468,7584 4470,7585 L 4470,7585 4471,7586 C 4473,7588 4476,7591 4478,7594 4483,7601 4489,7608 4498,7611 L 4498,7611 4498,7611 C 4499,7611 4501,7612 4505,7612 4517,7612 4526,7603 4531,7587 4534,7577 4533,7568 4527,7561 4523,7556 4518,7554 4518,7553 L 4517,7553 4517,7553 4517,7553 C 4517,7553 4513,7552 4507,7552 4500,7552 4492,7554 4483,7559 L 4483,7559 4482,7559 C 4479,7560 4477,7561 4474,7561 4473,7561 4472,7560 4471,7560 L 4465,7559 4466,7552 4492,7467 4494,7461 Z M 4498,7468 L 4472,7554 C 4473,7554 4474,7554 4474,7554 4476,7554 4478,7554 4480,7553 4491,7547 4501,7545 4507,7545 4515,7545 4520,7548 4520,7548 4520,7548 4539,7555 4539,7577 4539,7581 4538,7585 4537,7589 4530,7614 4515,7618 4505,7618 4500,7618 4496,7617 4496,7617 4480,7612 4474,7596 4466,7590 4465,7589 4463,7589 4462,7588 L 4436,7675 4523,7701 C 4523,7703 4522,7705 4521,7706 4521,7706 4520,7707 4520,7707 L 4520,7707 C 4514,7714 4499,7721 4494,7736 4494,7736 4493,7740 4493,7745 4493,7755 4497,7770 4522,7777 4526,7778 4530,7779 4534,7779 4556,7779 4563,7759 4563,7759 4563,7759 4565,7755 4565,7747 4565,7740 4564,7731 4558,7720 4558,7719 4557,7719 4557,7718 4557,7718 4557,7718 4557,7718 4557,7716 4557,7715 4557,7714 4557,7713 4557,7712 4557,7711 L 4643,7737 4669,7650 C 4670,7651 4671,7651 4672,7652 4680,7658 4686,7674 4702,7679 4702,7679 4706,7680 4711,7680 4721,7680 4736,7676 4743,7651 4744,7646 4745,7642 4745,7639 4745,7616 4726,7610 4726,7610 4726,7610 4721,7607 4713,7607 4706,7607 4697,7609 4686,7615 4686,7615 4686,7615 4686,7615 4686,7615 4685,7615 4685,7615 4683,7616 4682,7616 4680,7616 4680,7616 4679,7616 4679,7616 L 4705,7531 4619,7505 C 4619,7506 4619,7507 4619,7508 4619,7509 4619,7511 4620,7514 4626,7525 4627,7534 4627,7541 4627,7549 4625,7553 4625,7553 4625,7553 4618,7572 4596,7572 4592,7572 4588,7572 4584,7571 4559,7563 4555,7548 4555,7539 4555,7533 4556,7530 4556,7530 4561,7514 4576,7507 4583,7500 4584,7498 4585,7496 4585,7495 L 4498,7468 Z"/>
    <path fill="rgb(255,255,255)" fill-opacity="0.298" stroke="rgb(255,255,255)" stroke-opacity="0.298" d="M 4573,7504 C 4574,7502 4575,7500 4575,7499 L 4496,7475 4498,7468 4585,7495 C 4585,7496 4584,7498 4583,7500 4576,7507 4561,7514 4556,7530 4556,7530 4546,7559 4584,7571 4592,7573 4599,7573 4604,7571 4598,7576 4588,7578 4574,7575 4536,7563 4546,7534 4546,7534 4551,7518 4567,7511 4573,7504 Z M 4705,7531 L 4679,7616 C 4681,7616 4682,7616 4684,7615 4682,7616 4679,7618 4676,7619 4674,7620 4671,7621 4669,7620 L 4695,7535 4619,7512 C 4618,7509 4618,7507 4619,7505 L 4705,7531 Z M 4462,7588 C 4463,7589 4465,7589 4466,7590 4474,7596 4480,7612 4496,7617 4496,7617 4503,7619 4512,7617 4500,7626 4487,7621 4487,7621 4473,7617 4466,7604 4459,7597 L 4462,7588 Z M 4479,7554 C 4479,7553 4480,7553 4481,7553 4481,7553 4480,7553 4480,7553 4480,7553 4479,7553 4479,7554 Z M 4548,7724 C 4547,7721 4547,7718 4547,7716 L 4557,7719 C 4558,7719 4558,7720 4558,7720 4571,7744 4563,7759 4563,7759 4563,7759 4558,7774 4542,7778 4551,7772 4554,7764 4554,7764 4554,7764 4561,7748 4548,7724 Z M 4743,7651 C 4737,7670 4727,7677 4718,7679 4724,7675 4730,7668 4733,7655 4742,7623 4716,7614 4716,7614 4716,7614 4705,7608 4687,7615 4710,7602 4726,7609 4726,7609 4726,7609 4751,7619 4743,7651 Z M 4663,7656 C 4664,7657 4665,7658 4666,7660 L 4643,7737 4635,7735 4659,7654 C 4660,7655 4661,7655 4663,7656 Z"/>
    <defs>
     <clipPath id="clip_path_3" clipPathUnits="userSpaceOnUse">
      <path d="M 4888,7281 C 4902,7285 4911,7292 4916,7301 4919,7307 4920,7312 4920,7316 4920,7322 4918,7325 4918,7326 4915,7338 4906,7345 4899,7351 L 4891,7357 C 4891,7357 4891,7358 4891,7358 4897,7360 4978,7383 4978,7383 L 4951,7477 4948,7475 4943,7473 C 4943,7473 4935,7465 4935,7465 4930,7458 4924,7450 4913,7447 4913,7447 4903,7444 4894,7449 4886,7453 4880,7461 4877,7473 4870,7502 4892,7510 4893,7511 4894,7511 4908,7517 4930,7505 4934,7503 4937,7503 4940,7504 L 4943,7504 4917,7596 4823,7569 4824,7567 4827,7560 C 4827,7560 4835,7553 4835,7553 4842,7547 4850,7541 4853,7531 4853,7531 4856,7521 4851,7511 4847,7503 4839,7498 4827,7494 4798,7487 4790,7509 4789,7510 4789,7511 4783,7525 4795,7547 4797,7552 4797,7556 4796,7559 L 4795,7561 4703,7535 C 4703,7535 4725,7459 4727,7451 4727,7451 4726,7451 4726,7451 4701,7465 4685,7457 4684,7457 4684,7457 4656,7446 4664,7412 4672,7386 4688,7381 4697,7380 4697,7380 4705,7380 4709,7382 L 4709,7382 C 4721,7385 4728,7394 4734,7401 4734,7401 4739,7407 4740,7408 4742,7401 4765,7322 4765,7322 4765,7322 4842,7344 4850,7346 4849,7345 4849,7344 4849,7343 4842,7331 4841,7321 4841,7314 4841,7307 4842,7303 4843,7301 L 4843,7301 C 4843,7301 4853,7273 4888,7281 L 4888,7281 Z"/>
     </clipPath>
    </defs>
    <g clip-path="url(#clip_path_3)">
     <path fill="rgb(255,242,84)" stroke="none" d="M 4863,7233 L 4826,7264 5027,7503 5065,7472 4863,7233 Z"/>
     <path fill="rgb(255,242,84)" stroke="none" d="M 4831,7260 L 4822,7267 5024,7506 5032,7499 4831,7260 Z"/>
     <path fill="rgb(255,241,83)" stroke="none" d="M 4827,7263 L 4819,7270 5020,7509 5029,7502 4827,7263 Z"/>
     <path fill="rgb(255,240,82)" stroke="none" d="M 4824,7266 L 4815,7273 5016,7512 5025,7505 4824,7266 Z"/>
     <path fill="rgb(255,239,81)" stroke="none" d="M 4820,7269 L 4811,7276 5013,7515 5021,7508 4820,7269 Z"/>
     <path fill="rgb(255,238,80)" stroke="none" d="M 4816,7272 L 4808,7279 5009,7518 5018,7511 4816,7272 Z"/>
     <path fill="rgb(254,236,79)" stroke="none" d="M 4813,7275 L 4804,7282 5005,7522 5014,7514 4813,7275 Z"/>
     <path fill="rgb(254,235,78)" stroke="none" d="M 4809,7278 L 4800,7285 5002,7525 5010,7517 4809,7278 Z"/>
     <path fill="rgb(254,234,77)" stroke="none" d="M 4805,7281 L 4797,7288 4998,7528 5007,7520 4805,7281 Z"/>
     <path fill="rgb(254,233,76)" stroke="none" d="M 4802,7284 L 4793,7292 4995,7531 5003,7524 4802,7284 Z"/>
     <path fill="rgb(254,232,75)" stroke="none" d="M 4798,7287 L 4790,7295 4991,7534 4999,7527 4798,7287 Z"/>
     <path fill="rgb(254,231,74)" stroke="none" d="M 4794,7290 L 4786,7298 4987,7537 4996,7530 4794,7290 Z"/>
     <path fill="rgb(254,230,73)" stroke="none" d="M 4791,7294 L 4782,7301 4984,7540 4992,7533 4791,7294 Z"/>
     <path fill="rgb(254,229,72)" stroke="none" d="M 4787,7297 L 4779,7304 4980,7543 4988,7536 4787,7297 Z"/>
     <path fill="rgb(253,228,70)" stroke="none" d="M 4783,7300 L 4775,7307 4976,7546 4985,7539 4783,7300 Z"/>
     <path fill="rgb(253,227,69)" stroke="none" d="M 4780,7303 L 4771,7310 4973,7549 4981,7542 4780,7303 Z"/>
     <path fill="rgb(253,225,68)" stroke="none" d="M 4776,7306 L 4768,7313 4969,7552 4978,7545 4776,7306 Z"/>
     <path fill="rgb(253,224,67)" stroke="none" d="M 4773,7309 L 4764,7316 4965,7555 4974,7548 4773,7309 Z"/>
     <path fill="rgb(253,223,66)" stroke="none" d="M 4769,7312 L 4760,7319 4962,7558 4970,7551 4769,7312 Z"/>
     <path fill="rgb(253,222,65)" stroke="none" d="M 4765,7315 L 4757,7322 4958,7561 4967,7554 4765,7315 Z"/>
     <path fill="rgb(253,221,64)" stroke="none" d="M 4762,7318 L 4753,7325 4954,7565 4963,7557 4762,7318 Z"/>
     <path fill="rgb(253,220,63)" stroke="none" d="M 4758,7321 L 4749,7328 4951,7568 4959,7560 4758,7321 Z"/>
     <path fill="rgb(252,219,62)" stroke="none" d="M 4754,7324 L 4746,7331 4947,7571 4956,7563 4754,7324 Z"/>
     <path fill="rgb(252,218,61)" stroke="none" d="M 4751,7327 L 4742,7335 4943,7574 4952,7567 4751,7327 Z"/>
     <path fill="rgb(252,217,60)" stroke="none" d="M 4747,7330 L 4738,7338 4940,7577 4948,7570 4747,7330 Z"/>
     <path fill="rgb(252,216,59)" stroke="none" d="M 4743,7333 L 4735,7341 4936,7580 4945,7573 4743,7333 Z"/>
     <path fill="rgb(252,214,58)" stroke="none" d="M 4740,7337 L 4731,7344 4932,7583 4941,7576 4740,7337 Z"/>
     <path fill="rgb(252,213,57)" stroke="none" d="M 4736,7340 L 4727,7347 4929,7586 4937,7579 4736,7340 Z"/>
     <path fill="rgb(252,212,56)" stroke="none" d="M 4732,7343 L 4724,7350 4925,7589 4934,7582 4732,7343 Z"/>
     <path fill="rgb(252,211,55)" stroke="none" d="M 4729,7346 L 4720,7353 4921,7592 4930,7585 4729,7346 Z"/>
     <path fill="rgb(251,210,54)" stroke="none" d="M 4725,7349 L 4716,7356 4918,7595 4926,7588 4725,7349 Z"/>
     <path fill="rgb(251,209,53)" stroke="none" d="M 4721,7352 L 4713,7359 4914,7598 4923,7591 4721,7352 Z"/>
     <path fill="rgb(251,208,52)" stroke="none" d="M 4718,7355 L 4709,7362 4911,7601 4919,7594 4718,7355 Z"/>
     <path fill="rgb(251,207,51)" stroke="none" d="M 4714,7358 L 4706,7365 4907,7604 4915,7597 4714,7358 Z"/>
     <path fill="rgb(251,206,50)" stroke="none" d="M 4710,7361 L 4702,7368 4903,7608 4912,7600 4710,7361 Z"/>
     <path fill="rgb(251,205,49)" stroke="none" d="M 4707,7364 L 4698,7371 4900,7611 4908,7603 4707,7364 Z"/>
     <path fill="rgb(251,203,48)" stroke="none" d="M 4703,7367 L 4695,7374 4896,7614 4904,7606 4703,7367 Z"/>
     <path fill="rgb(251,202,47)" stroke="none" d="M 4699,7370 L 4691,7378 4892,7617 4901,7610 4699,7370 Z"/>
     <path fill="rgb(250,201,45)" stroke="none" d="M 4696,7373 L 4687,7381 4889,7620 4897,7613 4696,7373 Z"/>
     <path fill="rgb(250,200,44)" stroke="none" d="M 4692,7376 L 4684,7384 4885,7623 4894,7616 4692,7376 Z"/>
     <path fill="rgb(250,199,43)" stroke="none" d="M 4689,7380 L 4680,7387 4881,7626 4890,7619 4689,7380 Z"/>
     <path fill="rgb(250,198,42)" stroke="none" d="M 4685,7383 L 4676,7390 4878,7629 4886,7622 4685,7383 Z"/>
     <path fill="rgb(250,197,41)" stroke="none" d="M 4681,7386 L 4673,7393 4874,7632 4883,7625 4681,7386 Z"/>
     <path fill="rgb(250,196,40)" stroke="none" d="M 4678,7389 L 4669,7396 4870,7635 4879,7628 4678,7389 Z"/>
     <path fill="rgb(250,195,39)" stroke="none" d="M 4674,7392 L 4665,7399 4867,7638 4875,7631 4674,7392 Z"/>
     <path fill="rgb(250,194,38)" stroke="none" d="M 4670,7395 L 4662,7402 4863,7641 4872,7634 4670,7395 Z"/>
     <path fill="rgb(249,192,37)" stroke="none" d="M 4667,7398 L 4658,7405 4859,7644 4868,7637 4667,7398 Z"/>
     <path fill="rgb(249,191,36)" stroke="none" d="M 4663,7401 L 4654,7408 4856,7648 4864,7640 4663,7401 Z"/>
     <path fill="rgb(249,190,35)" stroke="none" d="M 4659,7404 L 4651,7411 4852,7651 4861,7643 4659,7404 Z"/>
     <path fill="rgb(249,189,34)" stroke="none" d="M 4656,7407 L 4647,7414 4848,7654 4857,7646 4656,7407 Z"/>
     <path fill="rgb(249,188,33)" stroke="none" d="M 4652,7410 L 4618,7439 4819,7678 4853,7650 4652,7410 Z"/>
    </g>
    <path fill="rgb(226,150,59)" stroke="none" d="M 4889,7278 L 4889,7278 4889,7278 C 4903,7283 4913,7290 4919,7300 4925,7312 4922,7325 4921,7326 4917,7340 4908,7347 4900,7353 4899,7354 4898,7355 4896,7356 L 4976,7379 4982,7381 4980,7387 4955,7474 4953,7480 4947,7478 C 4945,7478 4943,7477 4941,7476 L 4941,7475 4941,7475 C 4938,7473 4936,7470 4933,7467 4928,7460 4922,7453 4913,7450 L 4912,7450 4912,7450 C 4912,7450 4910,7449 4906,7449 4894,7449 4885,7458 4880,7474 4880,7474 4880,7474 4880,7474 4880,7474 4880,7474 4880,7474 4880,7474 4880,7474 4880,7474 4877,7485 4879,7494 4885,7501 4889,7506 4894,7508 4894,7508 L 4894,7508 4895,7508 4894,7508 C 4895,7508 4898,7509 4904,7509 4911,7509 4920,7507 4928,7502 L 4929,7502 4929,7502 C 4932,7501 4935,7500 4937,7500 4938,7500 4939,7500 4940,7501 L 4947,7502 4945,7508 4920,7594 4919,7600 4913,7598 4825,7573 4820,7572 4821,7566 C 4822,7564 4823,7561 4824,7559 L 4824,7558 4825,7558 C 4827,7555 4830,7553 4833,7550 4840,7545 4847,7539 4850,7530 L 4850,7530 4850,7530 C 4850,7530 4853,7521 4848,7513 4844,7506 4837,7501 4826,7497 4822,7496 4819,7496 4816,7496 4798,7496 4792,7511 4792,7511 L 4792,7512 4792,7512 4792,7512 C 4792,7512 4786,7525 4798,7546 L 4798,7546 4798,7547 C 4800,7552 4800,7556 4799,7560 L 4797,7565 4791,7563 4705,7539 4699,7537 4701,7531 4723,7456 C 4714,7460 4705,7462 4697,7462 4689,7462 4684,7460 4683,7460 4681,7459 4675,7456 4669,7450 4663,7443 4657,7430 4661,7411 L 4661,7411 4661,7411 C 4670,7382 4689,7377 4699,7377 4705,7377 4709,7378 4709,7379 L 4709,7379 C 4723,7382 4730,7392 4736,7399 4737,7400 4738,7401 4738,7402 L 4761,7324 4762,7318 4768,7319 4845,7341 C 4833,7318 4839,7302 4840,7300 4841,7297 4850,7277 4875,7277 4880,7277 4884,7277 4889,7278 Z M 4887,7284 C 4883,7283 4879,7283 4875,7283 4853,7283 4846,7302 4846,7302 4846,7302 4844,7307 4844,7314 4844,7321 4845,7330 4852,7342 4853,7344 4853,7346 4853,7348 4853,7349 4853,7349 4853,7350 L 4767,7325 4743,7407 4743,7407 4742,7413 C 4740,7412 4739,7412 4738,7411 4737,7410 4737,7410 4736,7409 4736,7409 4736,7409 4736,7409 4730,7402 4723,7389 4708,7385 4708,7385 4704,7383 4699,7383 4690,7383 4675,7388 4667,7413 4666,7417 4666,7421 4666,7425 4666,7447 4685,7454 4685,7454 4685,7454 4690,7456 4697,7456 4704,7456 4713,7454 4725,7448 4727,7447 4729,7447 4731,7447 4731,7447 4731,7447 4732,7447 L 4730,7453 4730,7453 4707,7533 4793,7558 C 4793,7557 4793,7556 4793,7555 4793,7553 4793,7551 4792,7549 4786,7537 4784,7528 4784,7521 4784,7514 4786,7509 4786,7509 4786,7509 4793,7490 4816,7490 4819,7490 4823,7490 4827,7491 4853,7499 4857,7514 4857,7523 4857,7528 4856,7532 4856,7532 4851,7548 4836,7555 4829,7562 4828,7564 4828,7566 4827,7567 L 4914,7593 4939,7507 C 4939,7506 4938,7506 4937,7506 4936,7506 4934,7507 4931,7508 4920,7514 4911,7516 4904,7516 4896,7516 4892,7514 4892,7514 4892,7514 4872,7507 4872,7484 4872,7481 4873,7477 4874,7472 4881,7447 4896,7443 4906,7443 4911,7443 4914,7444 4914,7444 4930,7449 4937,7464 4945,7470 4946,7471 4948,7472 4949,7472 L 4974,7385 4887,7360 C 4887,7358 4888,7357 4889,7355 4895,7348 4911,7341 4915,7325 4915,7325 4916,7321 4916,7316 4916,7307 4912,7292 4887,7284 Z"/>
    <path fill="rgb(255,255,255)" fill-opacity="0.49" stroke="rgb(255,255,255)" stroke-opacity="0.49" d="M 4842,7347 C 4843,7350 4843,7352 4842,7354 L 4765,7332 4767,7325 4842,7347 Z M 4891,7447 C 4884,7451 4878,7459 4874,7472 4866,7504 4892,7514 4892,7514 4892,7514 4901,7518 4916,7514 4895,7524 4882,7517 4882,7517 4882,7517 4855,7508 4864,7476 4870,7455 4882,7449 4891,7447 Z M 4708,7385 C 4721,7388 4728,7399 4734,7407 L 4731,7416 C 4730,7416 4729,7415 4728,7415 4720,7409 4714,7393 4697,7388 4697,7388 4692,7386 4684,7388 4696,7381 4708,7385 4708,7385 Z M 4720,7451 C 4716,7452 4713,7454 4709,7454 4711,7454 4713,7453 4714,7452 4716,7451 4718,7451 4720,7451 Z M 4915,7325 C 4911,7341 4895,7348 4889,7355 4888,7357 4887,7358 4887,7360 L 4974,7385 4949,7472 C 4948,7472 4946,7471 4945,7470 4943,7469 4942,7468 4941,7467 L 4964,7389 4876,7364 C 4877,7362 4878,7360 4879,7359 4885,7351 4900,7345 4905,7328 4905,7328 4915,7299 4877,7288 4870,7286 4864,7286 4859,7287 4865,7283 4874,7281 4887,7284 4925,7295 4915,7325 4915,7325 Z M 4799,7494 C 4790,7500 4786,7509 4786,7509 4786,7509 4779,7525 4792,7549 4794,7553 4794,7555 4793,7558 L 4782,7555 C 4782,7554 4782,7553 4782,7552 4768,7529 4776,7513 4776,7513 4776,7513 4782,7497 4799,7494 Z M 4931,7508 C 4935,7506 4937,7506 4939,7507 L 4914,7593 4906,7590 4929,7510 C 4928,7510 4927,7510 4926,7510 4928,7509 4930,7509 4931,7508 Z"/>
    <defs>
     <clipPath id="clip_path_4" clipPathUnits="userSpaceOnUse">
      <path d="M 4651,7287 L 4650,7290 4647,7295 C 4647,7296 4639,7303 4639,7303 4632,7308 4624,7314 4621,7325 4621,7325 4618,7335 4623,7344 4627,7352 4635,7358 4647,7361 4676,7369 4684,7347 4685,7346 4685,7345 4691,7331 4679,7309 4678,7305 4677,7301 4678,7299 L 4679,7295 4771,7323 4743,7416 4740,7415 4734,7412 C 4734,7412 4727,7404 4727,7404 4721,7397 4715,7389 4705,7386 4704,7386 4695,7383 4685,7388 4677,7392 4671,7400 4668,7412 4660,7441 4683,7449 4684,7449 4685,7450 4698,7456 4721,7444 4725,7442 4729,7442 4732,7443 L 4735,7444 4708,7536 C 4708,7536 4632,7513 4624,7511 4624,7511 4624,7512 4624,7512 4630,7524 4632,7533 4632,7541 4632,7549 4630,7554 4629,7554 4629,7554 4619,7582 4585,7573 4571,7569 4562,7563 4557,7553 4554,7548 4553,7543 4553,7538 4553,7533 4554,7529 4554,7529 4558,7517 4567,7510 4574,7504 4574,7504 4580,7499 4581,7498 4574,7496 4495,7473 4495,7473 4495,7473 4518,7395 4520,7388 4519,7388 4518,7388 4517,7389 4492,7402 4475,7394 4475,7394 4475,7394 4446,7383 4455,7349 4465,7317 4486,7317 4495,7318 4497,7318 4499,7319 4500,7319 L 4500,7319 C 4500,7319 4500,7319 4500,7319 4512,7323 4519,7332 4525,7339 4525,7339 4531,7346 4531,7346 4531,7346 4532,7346 4532,7346 4534,7340 4558,7260 4558,7260 L 4651,7287 Z"/>
     </clipPath>
    </defs>
    <g clip-path="url(#clip_path_4)">
     <path fill="rgb(81,213,109)" stroke="none" d="M 4695,7178 L 4646,7207 4807,7476 4856,7447 4695,7178 Z"/>
     <path fill="rgb(81,213,109)" stroke="none" d="M 4661,7198 L 4634,7214 4795,7483 4822,7467 4661,7198 Z"/>
     <path fill="rgb(79,212,107)" stroke="none" d="M 4650,7205 L 4623,7221 4784,7490 4811,7474 4650,7205 Z"/>
     <path fill="rgb(77,211,106)" stroke="none" d="M 4638,7212 L 4611,7228 4772,7497 4799,7481 4638,7212 Z"/>
     <path fill="rgb(74,210,104)" stroke="none" d="M 4627,7218 L 4599,7235 4760,7504 4788,7488 4627,7218 Z"/>
     <path fill="rgb(72,208,102)" stroke="none" d="M 4615,7225 L 4588,7242 4749,7511 4776,7495 4615,7225 Z"/>
     <path fill="rgb(70,207,101)" stroke="none" d="M 4603,7232 L 4576,7249 4737,7518 4764,7502 4603,7232 Z"/>
     <path fill="rgb(68,206,99)" stroke="none" d="M 4592,7239 L 4565,7256 4726,7525 4753,7509 4592,7239 Z"/>
     <path fill="rgb(66,205,97)" stroke="none" d="M 4580,7246 L 4553,7262 4714,7532 4741,7515 4580,7246 Z"/>
     <path fill="rgb(63,204,96)" stroke="none" d="M 4569,7253 L 4541,7269 4702,7539 4730,7522 4569,7253 Z"/>
     <path fill="rgb(61,203,94)" stroke="none" d="M 4557,7260 L 4530,7276 4691,7546 4718,7529 4557,7260 Z"/>
     <path fill="rgb(59,202,93)" stroke="none" d="M 4546,7267 L 4518,7283 4679,7553 4707,7536 4546,7267 Z"/>
     <path fill="rgb(57,200,91)" stroke="none" d="M 4534,7274 L 4507,7290 4668,7559 4695,7543 4534,7274 Z"/>
     <path fill="rgb(55,199,89)" stroke="none" d="M 4522,7281 L 4495,7297 4656,7566 4683,7550 4522,7281 Z"/>
     <path fill="rgb(52,198,88)" stroke="none" d="M 4511,7288 L 4484,7304 4645,7573 4672,7557 4511,7288 Z"/>
     <path fill="rgb(50,197,86)" stroke="none" d="M 4499,7295 L 4472,7311 4633,7580 4660,7564 4499,7295 Z"/>
     <path fill="rgb(48,196,84)" stroke="none" d="M 4488,7302 L 4460,7318 4621,7587 4649,7571 4488,7302 Z"/>
     <path fill="rgb(46,195,83)" stroke="none" d="M 4476,7309 L 4449,7325 4610,7594 4637,7578 4476,7309 Z"/>
     <path fill="rgb(44,193,81)" stroke="none" d="M 4464,7315 L 4437,7332 4598,7601 4625,7585 4464,7315 Z"/>
     <path fill="rgb(41,192,79)" stroke="none" d="M 4453,7322 L 4426,7339 4587,7608 4614,7592 4453,7322 Z"/>
     <path fill="rgb(39,191,78)" stroke="none" d="M 4441,7329 L 4414,7346 4575,7615 4602,7599 4441,7329 Z"/>
     <path fill="rgb(37,190,76)" stroke="none" d="M 4430,7336 L 4410,7348 4571,7617 4591,7606 4430,7336 Z"/>
    </g>
    <path fill="rgb(5,147,62)" stroke="none" d="M 4556,7256 L 4562,7258 4649,7283 4655,7285 4653,7291 C 4652,7293 4651,7295 4650,7297 L 4650,7297 4650,7298 C 4647,7300 4644,7303 4641,7305 4634,7310 4627,7316 4624,7326 L 4624,7326 4624,7326 C 4624,7326 4621,7335 4626,7343 4630,7350 4637,7355 4648,7358 4652,7359 4655,7360 4658,7360 4676,7360 4682,7345 4682,7345 L 4682,7344 4682,7344 4682,7344 C 4682,7344 4688,7331 4677,7310 L 4676,7310 4676,7309 C 4675,7305 4674,7301 4675,7298 L 4676,7292 4683,7293 4768,7319 4774,7321 4773,7326 4747,7414 4745,7419 4740,7418 C 4737,7417 4735,7416 4732,7415 L 4732,7415 4732,7414 C 4729,7412 4727,7409 4724,7406 4719,7399 4713,7392 4704,7389 L 4704,7389 4704,7389 C 4704,7389 4701,7388 4697,7388 4685,7388 4676,7396 4671,7413 4668,7424 4670,7432 4675,7439 4679,7444 4685,7446 4685,7446 L 4685,7447 4685,7447 4685,7447 C 4685,7447 4689,7448 4695,7448 4702,7448 4711,7446 4719,7441 L 4720,7441 4720,7441 C 4723,7440 4726,7439 4728,7439 4730,7439 4731,7440 4733,7440 L 4739,7442 4737,7448 4712,7533 4710,7539 4704,7538 4629,7516 C 4639,7538 4633,7553 4632,7555 4631,7558 4622,7578 4597,7578 4593,7578 4588,7578 4584,7576 L 4584,7576 4584,7576 C 4569,7572 4559,7565 4554,7555 4547,7542 4551,7530 4551,7528 4555,7515 4565,7507 4572,7502 4573,7501 4574,7500 4575,7500 L 4497,7476 4491,7475 4493,7469 4515,7393 C 4506,7397 4497,7400 4488,7400 4481,7400 4475,7398 4474,7397 4474,7397 4474,7397 4474,7397 4474,7397 4474,7397 4474,7397 4474,7397 4474,7397 4474,7397 4474,7397 4474,7397 4474,7397 4474,7397 4474,7397 4474,7397 4474,7397 4474,7397 4474,7397 4474,7397 4474,7397 4473,7397 4473,7397 4473,7397 4473,7397 4473,7397 4473,7397 4473,7397 4473,7397 4474,7397 4474,7397 4474,7397 4473,7397 4473,7397 4473,7397 4473,7397 4473,7397 4471,7396 4465,7393 4459,7387 4453,7380 4447,7367 4452,7348 L 4452,7348 4452,7348 C 4461,7319 4480,7315 4490,7315 4496,7315 4500,7316 4501,7316 4514,7320 4522,7330 4527,7337 4528,7338 4529,7340 4530,7341 L 4554,7262 4556,7256 Z M 4560,7264 L 4534,7351 C 4532,7350 4531,7350 4529,7348 4529,7348 4529,7348 4528,7348 4528,7348 4528,7348 4528,7348 4521,7341 4515,7327 4499,7322 4499,7322 4495,7321 4490,7321 4481,7321 4466,7325 4458,7350 4457,7354 4457,7358 4457,7362 4457,7384 4476,7391 4476,7391 4476,7391 4480,7393 4488,7393 4495,7393 4504,7392 4515,7386 4518,7385 4520,7384 4521,7384 4522,7384 4523,7385 4524,7385 L 4499,7471 4586,7496 C 4585,7497 4585,7499 4584,7500 4583,7500 4583,7501 4582,7501 4582,7502 4582,7502 4582,7502 4575,7508 4562,7515 4557,7530 4557,7530 4556,7533 4556,7538 4556,7548 4560,7563 4585,7571 4590,7572 4594,7572 4597,7572 4620,7572 4627,7553 4627,7553 4627,7553 4629,7548 4629,7541 4629,7534 4627,7525 4621,7513 4621,7513 4621,7513 4621,7513 4621,7513 4621,7513 4621,7513 4620,7511 4620,7509 4620,7507 4620,7507 4620,7507 4620,7506 L 4706,7532 4731,7446 C 4730,7446 4729,7445 4728,7445 4726,7445 4724,7446 4722,7447 4711,7453 4702,7454 4695,7454 4687,7454 4683,7452 4683,7452 4683,7452 4663,7445 4663,7423 4663,7419 4664,7415 4665,7411 4672,7386 4687,7382 4697,7382 4702,7382 4706,7383 4706,7383 4722,7388 4728,7403 4736,7410 4738,7411 4739,7411 4741,7412 L 4767,7325 4681,7299 C 4681,7300 4681,7301 4681,7301 4681,7303 4681,7305 4682,7307 4688,7318 4690,7328 4690,7335 4690,7342 4688,7347 4688,7347 4688,7347 4681,7366 4658,7366 4655,7366 4651,7366 4646,7364 4621,7357 4617,7342 4617,7332 4617,7327 4618,7324 4618,7324 4623,7308 4639,7301 4645,7294 4646,7292 4646,7291 4647,7289 L 4560,7264 Z"/>
    <path fill="rgb(255,255,255)" fill-opacity="0.298" stroke="rgb(255,255,255)" stroke-opacity="0.298" d="M 4510,7388 C 4507,7390 4504,7391 4502,7391 4503,7391 4504,7390 4505,7389 4507,7389 4509,7388 4510,7388 Z M 4527,7346 L 4524,7355 C 4522,7354 4521,7353 4519,7352 4512,7346 4505,7331 4489,7326 4489,7326 4483,7324 4475,7325 4487,7318 4499,7322 4499,7322 4513,7326 4520,7339 4527,7346 Z M 4617,7557 C 4617,7557 4624,7541 4611,7517 4610,7514 4610,7512 4610,7510 L 4621,7514 C 4634,7538 4627,7553 4627,7553 4627,7553 4621,7568 4604,7572 4613,7566 4617,7557 4617,7557 Z M 4647,7289 C 4646,7291 4646,7292 4645,7294 4639,7301 4623,7308 4618,7324 4618,7324 4608,7353 4646,7364 4654,7366 4660,7366 4665,7365 4659,7369 4649,7372 4636,7368 4598,7357 4608,7328 4608,7328 4613,7311 4629,7305 4635,7298 4636,7296 4636,7295 4637,7293 L 4558,7270 4560,7264 4647,7289 Z M 4722,7447 C 4726,7445 4729,7445 4731,7446 L 4706,7532 4697,7529 4721,7450 C 4720,7449 4718,7449 4717,7449 4718,7449 4720,7448 4722,7447 Z M 4665,7411 C 4657,7443 4683,7452 4683,7452 4683,7452 4692,7457 4708,7452 4686,7463 4673,7456 4673,7456 4673,7456 4647,7447 4655,7415 4661,7394 4672,7388 4682,7386 4675,7390 4669,7398 4665,7411 Z M 4682,7306 C 4681,7303 4681,7301 4681,7299 L 4767,7325 4741,7412 C 4739,7411 4738,7411 4736,7410 4735,7409 4734,7408 4733,7407 L 4757,7329 4682,7306 Z"/>
   </g>
  </g>
 </g>
</svg>