<?xml version="1.0" encoding="UTF-8"?>
<!DOCTYPE svg PUBLIC "-//W3C//DTD SVG 1.1//EN" "http://www.w3.org/Graphics/SVG/1.1/DTD/svg11.dtd">
<svg version="1.2" width="16.02mm" height="16.02mm" viewBox="3548 2003 1602 1602" preserveAspectRatio="xMidYMid" fill-rule="evenodd" stroke-width="28.222" stroke-linejoin="round" xmlns="http://www.w3.org/2000/svg" xmlns:ooo="http://xml.openoffice.org/svg/export" xmlns:xlink="http://www.w3.org/1999/xlink" xmlns:presentation="http://sun.com/xmlns/staroffice/presentation" xmlns:smil="http://www.w3.org/2001/SMIL20/" xmlns:anim="urn:oasis:names:tc:opendocument:xmlns:animation:1.0" xml:space="preserve">
 <defs class="EmbeddedBulletChars">
  <g id="bullet-char-template-57356" transform="scale(0.00048828125,-0.00048828125)">
   <path d="M 580,1141 L 1163,571 580,0 -4,571 580,1141 Z"/>
  </g>
  <g id="bullet-char-template-57354" transform="scale(0.00048828125,-0.00048828125)">
   <path d="M 8,1128 L 1137,1128 1137,0 8,0 8,1128 Z"/>
  </g>
  <g id="bullet-char-template-10146" transform="scale(0.00048828125,-0.00048828125)">
   <path d="M 174,0 L 602,739 174,1481 1456,739 174,0 Z M 1358,739 L 309,1346 659,739 1358,739 Z"/>
  </g>
  <g id="bullet-char-template-10132" transform="scale(0.00048828125,-0.00048828125)">
   <path d="M 2015,739 L 1276,0 717,0 1260,543 174,543 174,936 1260,936 717,1481 1274,1481 2015,739 Z"/>
  </g>
  <g id="bullet-char-template-10007" transform="scale(0.00048828125,-0.00048828125)">
   <path d="M 0,-2 C -7,14 -16,27 -25,37 L 356,567 C 262,823 215,952 215,954 215,979 228,992 255,992 264,992 276,990 289,987 310,991 331,999 354,1012 L 381,999 492,748 772,1049 836,1024 860,1049 C 881,1039 901,1025 922,1006 886,937 835,863 770,784 769,783 710,716 594,584 L 774,223 C 774,196 753,168 711,139 L 727,119 C 717,90 699,76 672,76 641,76 570,178 457,381 L 164,-76 C 142,-110 111,-127 72,-127 30,-127 9,-110 8,-76 1,-67 -2,-52 -2,-32 -2,-23 -1,-13 0,-2 Z"/>
  </g>
  <g id="bullet-char-template-10004" transform="scale(0.00048828125,-0.00048828125)">
   <path d="M 285,-33 C 182,-33 111,30 74,156 52,228 41,333 41,471 41,549 55,616 82,672 116,743 169,778 240,778 293,778 328,747 346,684 L 369,508 C 377,444 397,411 428,410 L 1163,1116 C 1174,1127 1196,1133 1229,1133 1271,1133 1292,1118 1292,1087 L 1292,965 C 1292,929 1282,901 1262,881 L 442,47 C 390,-6 338,-33 285,-33 Z"/>
  </g>
  <g id="bullet-char-template-9679" transform="scale(0.00048828125,-0.00048828125)">
   <path d="M 813,0 C 632,0 489,54 383,161 276,268 223,411 223,592 223,773 276,916 383,1023 489,1130 632,1184 813,1184 992,1184 1136,1130 1245,1023 1353,916 1407,772 1407,592 1407,412 1353,268 1245,161 1136,54 992,0 813,0 Z"/>
  </g>
  <g id="bullet-char-template-8226" transform="scale(0.00048828125,-0.00048828125)">
   <path d="M 346,457 C 273,457 209,483 155,535 101,586 74,649 74,723 74,796 101,859 155,911 209,963 273,989 346,989 419,989 480,963 531,910 582,859 608,796 608,723 608,648 583,586 532,535 482,483 420,457 346,457 Z"/>
  </g>
  <g id="bullet-char-template-8211" transform="scale(0.00048828125,-0.00048828125)">
   <path d="M -4,459 L 1135,459 1135,606 -4,606 -4,459 Z"/>
  </g>
  <g id="bullet-char-template-61548" transform="scale(0.00048828125,-0.00048828125)">
   <path d="M 173,740 C 173,903 231,1043 346,1159 462,1274 601,1332 765,1332 928,1332 1067,1274 1183,1159 1299,1043 1357,903 1357,740 1357,577 1299,437 1183,322 1067,206 928,148 765,148 601,148 462,206 346,322 231,437 173,577 173,740 Z"/>
  </g>
 </defs>
 <g class="Page">
  <g class="com.sun.star.drawing.CustomShape">
   <g id="id3">
    <rect class="BoundingBox" stroke="none" fill="none" x="3548" y="2003" width="1602" height="1602"/>
    <path fill="none" stroke="rgb(167,169,172)" stroke-width="100" stroke-linejoin="round" d="M 3848,2053 L 3848,2053 C 3804,2053 3761,2065 3723,2087 3685,2108 3653,2140 3632,2178 3610,2216 3598,2259 3598,2303 L 3598,3303 3598,3304 C 3598,3348 3610,3391 3632,3429 3653,3467 3685,3499 3723,3520 3761,3542 3804,3554 3848,3554 L 4848,3554 4849,3554 C 4893,3554 4936,3542 4974,3520 5012,3499 5044,3467 5065,3429 5087,3391 5099,3348 5099,3304 L 5099,2303 5099,2303 5099,2303 C 5099,2259 5087,2216 5065,2178 5044,2140 5012,2108 4974,2087 4936,2065 4893,2053 4849,2053 L 3848,2053 Z"/>
   </g>
  </g>
  <g class="com.sun.star.drawing.LineShape">
   <g id="id4">
    <rect class="BoundingBox" stroke="none" fill="none" x="3675" y="2310" width="694" height="101"/>
    <path fill="none" stroke="rgb(95,95,95)" stroke-width="100" stroke-linejoin="round" d="M 3725,2360 L 4318,2360"/>
   </g>
  </g>
  <g class="com.sun.star.drawing.LineShape">
   <g id="id5">
    <rect class="BoundingBox" stroke="none" fill="none" x="3676" y="2553" width="694" height="101"/>
    <path fill="none" stroke="rgb(95,95,95)" stroke-width="100" stroke-linejoin="round" d="M 3726,2603 L 4319,2603"/>
   </g>
  </g>
  <g class="com.sun.star.drawing.LineShape">
   <g id="id6">
    <rect class="BoundingBox" stroke="none" fill="none" x="3687" y="2765" width="694" height="101"/>
    <path fill="none" stroke="rgb(95,95,95)" stroke-width="100" stroke-linejoin="round" d="M 3737,2815 L 4330,2815"/>
   </g>
  </g>
  <g class="com.sun.star.drawing.LineShape">
   <g id="id7">
    <rect class="BoundingBox" stroke="none" fill="none" x="3676" y="2988" width="1307" height="111"/>
    <path fill="none" stroke="rgb(2,164,156)" stroke-width="100" stroke-linejoin="round" d="M 3726,3038 L 4932,3048"/>
   </g>
  </g>
  <g class="com.sun.star.drawing.LineShape">
   <g id="id8">
    <rect class="BoundingBox" stroke="none" fill="none" x="3676" y="2310" width="694" height="101"/>
    <path fill="none" stroke="rgb(0,7,176)" stroke-width="100" stroke-linejoin="round" d="M 3726,2360 L 4319,2360"/>
   </g>
  </g>
  <g class="com.sun.star.drawing.LineShape">
   <g id="id9">
    <rect class="BoundingBox" stroke="none" fill="none" x="3665" y="3211" width="1307" height="111"/>
    <path fill="none" stroke="rgb(237,105,36)" stroke-width="100" stroke-linejoin="round" d="M 3715,3261 L 4921,3271"/>
   </g>
  </g>
  <g class="Graphic">
   <g id="id10">
    <rect class="BoundingBox" stroke="none" fill="none" x="4379" y="2286" width="626" height="626"/>
    <defs>
     <clipPath id="clip_path_1" clipPathUnits="userSpaceOnUse">
      <path d="M 4818,2555 C 4832,2559 4841,2566 4846,2575 4849,2581 4850,2586 4850,2590 4850,2596 4848,2599 4848,2600 4845,2612 4835,2619 4828,2625 4828,2625 4822,2630 4821,2630 4828,2632 4908,2656 4908,2656 4908,2656 4884,2734 4882,2741 4883,2741 4884,2741 4885,2740 4907,2729 4923,2733 4927,2735 L 4927,2735 C 4927,2735 4956,2746 4946,2780 4942,2794 4936,2803 4926,2808 4914,2814 4902,2810 4902,2810 4890,2806 4883,2797 4877,2790 4877,2790 4871,2783 4871,2783 4871,2783 4870,2783 4870,2782 4868,2789 4844,2869 4844,2869 L 4750,2841 4752,2838 4754,2833 C 4754,2833 4763,2826 4763,2826 4769,2820 4777,2814 4780,2804 4780,2804 4784,2794 4779,2784 4775,2776 4767,2771 4755,2767 4726,2759 4717,2782 4717,2783 4717,2783 4710,2797 4722,2820 4724,2824 4724,2827 4724,2829 L 4723,2833 4631,2805 4659,2712 4662,2713 4668,2716 C 4668,2716 4676,2724 4676,2724 4681,2731 4687,2739 4697,2742 4698,2742 4707,2745 4717,2740 4725,2736 4731,2728 4734,2716 4742,2688 4719,2679 4719,2679 4718,2678 4704,2672 4682,2684 4677,2686 4673,2686 4670,2685 L 4667,2684 4695,2593 C 4695,2593 4771,2615 4779,2618 4779,2617 4779,2617 4778,2616 4772,2605 4771,2595 4771,2588 4771,2580 4773,2575 4773,2574 4773,2574 4784,2546 4818,2555 L 4818,2555 Z"/>
     </clipPath>
    </defs>
    <g clip-path="url(#clip_path_1)">
     <path fill="rgb(205,50,50)" stroke="none" d="M 4700,2949 L 4717,2939 4565,2665 4547,2675 4700,2949 Z"/>
     <path fill="rgb(205,50,50)" stroke="none" d="M 4700,2949 L 4731,2932 4578,2657 4547,2675 4700,2949 Z"/>
     <path fill="rgb(207,53,53)" stroke="none" d="M 4713,2942 L 4744,2924 4592,2650 4560,2667 4713,2942 Z"/>
     <path fill="rgb(209,55,55)" stroke="none" d="M 4726,2934 L 4758,2917 4605,2643 4574,2660 4726,2934 Z"/>
     <path fill="rgb(211,58,58)" stroke="none" d="M 4740,2927 L 4771,2909 4619,2635 4587,2652 4740,2927 Z"/>
     <path fill="rgb(213,60,60)" stroke="none" d="M 4753,2919 L 4785,2902 4632,2628 4601,2645 4753,2919 Z"/>
     <path fill="rgb(215,63,63)" stroke="none" d="M 4767,2912 L 4798,2894 4645,2620 4614,2638 4767,2912 Z"/>
     <path fill="rgb(216,65,65)" stroke="none" d="M 4780,2904 L 4812,2887 4659,2613 4628,2630 4780,2904 Z"/>
     <path fill="rgb(218,68,68)" stroke="none" d="M 4794,2897 L 4825,2879 4672,2605 4641,2623 4794,2897 Z"/>
     <path fill="rgb(220,70,70)" stroke="none" d="M 4807,2889 L 4838,2872 4686,2598 4654,2615 4807,2889 Z"/>
     <path fill="rgb(222,73,73)" stroke="none" d="M 4821,2882 L 4852,2865 4699,2590 4668,2608 4821,2882 Z"/>
     <path fill="rgb(224,75,75)" stroke="none" d="M 4834,2875 L 4865,2857 4713,2583 4681,2600 4834,2875 Z"/>
     <path fill="rgb(226,78,78)" stroke="none" d="M 4847,2867 L 4879,2850 4726,2575 4695,2593 4847,2867 Z"/>
     <path fill="rgb(228,80,80)" stroke="none" d="M 4861,2860 L 4892,2842 4740,2568 4708,2585 4861,2860 Z"/>
     <path fill="rgb(230,82,82)" stroke="none" d="M 4874,2852 L 4906,2835 4753,2560 4722,2578 4874,2852 Z"/>
     <path fill="rgb(232,85,85)" stroke="none" d="M 4888,2845 L 4919,2827 4766,2553 4735,2570 4888,2845 Z"/>
     <path fill="rgb(234,88,88)" stroke="none" d="M 4901,2837 L 4933,2820 4780,2545 4748,2563 4901,2837 Z"/>
     <path fill="rgb(236,90,90)" stroke="none" d="M 4915,2830 L 4946,2812 4793,2538 4762,2555 4915,2830 Z"/>
     <path fill="rgb(237,92,92)" stroke="none" d="M 4928,2822 L 4959,2805 4807,2530 4775,2548 4928,2822 Z"/>
     <path fill="rgb(239,95,95)" stroke="none" d="M 4941,2815 L 4973,2797 4820,2523 4789,2540 4941,2815 Z"/>
     <path fill="rgb(241,98,98)" stroke="none" d="M 4955,2807 L 4986,2790 4834,2515 4802,2533 4955,2807 Z"/>
     <path fill="rgb(243,100,100)" stroke="none" d="M 4968,2800 L 5000,2782 4847,2508 4816,2525 4968,2800 Z"/>
     <path fill="rgb(245,102,102)" stroke="none" d="M 4982,2792 L 5013,2775 4860,2500 4829,2518 4982,2792 Z"/>
    </g>
    <path fill="rgb(188,0,0)" stroke="none" d="M 4819,2552 L 4819,2552 4819,2552 C 4834,2557 4844,2564 4849,2574 4855,2587 4852,2599 4851,2601 4847,2614 4837,2621 4830,2627 4829,2628 4828,2628 4827,2629 L 4906,2653 4911,2654 4910,2660 4887,2736 C 4896,2732 4905,2729 4914,2729 4922,2729 4927,2732 4928,2732 4930,2733 4937,2736 4943,2743 4949,2750 4955,2762 4949,2781 L 4949,2781 4949,2781 C 4941,2810 4922,2814 4911,2814 4905,2814 4901,2813 4901,2813 4901,2813 4901,2813 4901,2813 4888,2809 4880,2799 4875,2792 4873,2790 4872,2789 4871,2788 L 4848,2867 4846,2873 4840,2871 4753,2845 4747,2843 4749,2837 C 4749,2835 4750,2833 4752,2831 L 4752,2831 4752,2831 C 4754,2828 4757,2826 4761,2823 4767,2818 4775,2812 4777,2803 L 4777,2803 4778,2803 C 4778,2803 4780,2794 4776,2785 4772,2778 4765,2773 4754,2770 4750,2769 4747,2768 4743,2768 4726,2768 4720,2783 4720,2784 L 4720,2784 4720,2784 4720,2784 C 4720,2785 4714,2797 4725,2818 L 4725,2818 4725,2819 C 4727,2823 4727,2827 4727,2830 L 4725,2837 4719,2835 4633,2809 4627,2807 4629,2801 4655,2714 4657,2709 4663,2710 C 4665,2711 4667,2712 4670,2713 L 4670,2713 4670,2714 C 4673,2716 4675,2719 4678,2722 4683,2729 4689,2736 4698,2739 L 4698,2739 4698,2739 C 4698,2739 4701,2740 4705,2740 4717,2740 4726,2732 4731,2716 4734,2705 4733,2696 4727,2689 4723,2684 4717,2682 4717,2682 L 4717,2682 4717,2681 4717,2682 C 4717,2681 4713,2680 4707,2680 4700,2680 4691,2682 4683,2687 L 4683,2687 4682,2687 C 4679,2688 4677,2689 4674,2689 4672,2689 4671,2688 4669,2688 L 4664,2686 4665,2680 4691,2595 4693,2589 4699,2590 4773,2613 C 4763,2591 4769,2576 4770,2573 4771,2570 4780,2550 4805,2550 4810,2550 4814,2551 4819,2552 Z M 4817,2558 C 4813,2557 4809,2556 4805,2556 4783,2556 4776,2576 4776,2576 4776,2576 4774,2580 4774,2588 4774,2595 4775,2604 4781,2615 4782,2617 4783,2619 4783,2621 4783,2621 4783,2622 4783,2622 L 4777,2620 4776,2620 4697,2596 4671,2682 C 4672,2682 4673,2683 4674,2683 4676,2683 4678,2682 4680,2681 4691,2675 4700,2674 4707,2674 4715,2674 4720,2676 4720,2676 4720,2676 4739,2683 4739,2705 4739,2709 4738,2713 4737,2717 4730,2742 4715,2746 4705,2746 4700,2746 4696,2745 4696,2745 4680,2740 4674,2725 4666,2718 4665,2717 4663,2717 4661,2716 L 4635,2803 4721,2829 C 4721,2828 4721,2828 4721,2827 4721,2825 4720,2823 4720,2821 4714,2810 4712,2801 4712,2794 4712,2786 4714,2781 4714,2781 4714,2781 4721,2762 4743,2762 4747,2762 4751,2763 4756,2764 4780,2771 4785,2786 4785,2796 4785,2801 4783,2805 4783,2805 4779,2821 4763,2828 4757,2835 4756,2836 4755,2838 4755,2839 L 4842,2865 4868,2778 C 4869,2779 4871,2779 4873,2780 4880,2787 4887,2802 4903,2807 4903,2807 4906,2808 4911,2808 4921,2808 4936,2804 4943,2779 4945,2775 4945,2771 4945,2767 4945,2745 4926,2738 4926,2738 4926,2738 4922,2736 4914,2736 4907,2736 4898,2737 4887,2743 4886,2744 4885,2744 4885,2744 4884,2744 4884,2744 4884,2744 4883,2744 4882,2745 4881,2745 4880,2745 4879,2744 4878,2744 L 4904,2658 4823,2634 4823,2634 4817,2632 C 4817,2631 4818,2630 4819,2629 4825,2622 4840,2615 4845,2599 4845,2599 4846,2595 4846,2590 4846,2581 4842,2566 4817,2558 Z"/>
    <path fill="rgb(255,255,255)" fill-opacity="0.298" stroke="rgb(255,255,255)" stroke-opacity="0.298" d="M 4697,2596 L 4769,2618 C 4769,2618 4769,2619 4769,2619 4770,2622 4771,2624 4771,2626 L 4695,2604 4697,2596 Z M 4845,2599 C 4840,2615 4825,2622 4819,2629 4818,2630 4817,2631 4817,2632 L 4904,2658 4878,2744 C 4879,2744 4880,2745 4881,2744 4879,2745 4877,2746 4875,2747 4871,2749 4868,2749 4866,2748 L 4892,2663 4805,2637 C 4805,2635 4806,2634 4807,2633 4813,2626 4828,2619 4833,2603 4833,2603 4843,2574 4805,2562 4799,2561 4793,2560 4788,2561 4795,2557 4804,2555 4817,2558 4855,2569 4845,2599 4845,2599 Z M 4661,2716 C 4663,2717 4665,2717 4666,2718 4674,2725 4680,2740 4696,2745 4696,2745 4702,2747 4709,2746 4697,2754 4684,2749 4684,2749 4671,2745 4664,2734 4658,2726 L 4661,2716 Z M 4674,2683 C 4678,2681 4681,2680 4684,2679 4683,2680 4681,2681 4680,2681 4678,2682 4676,2682 4674,2683 Z M 4727,2767 C 4717,2773 4714,2781 4714,2781 4714,2781 4707,2797 4720,2821 4721,2824 4721,2827 4721,2829 L 4707,2825 C 4695,2801 4702,2786 4702,2786 4702,2786 4708,2769 4727,2767 Z M 4865,2789 L 4842,2865 4832,2862 4856,2782 C 4857,2783 4859,2784 4861,2785 4862,2786 4863,2787 4865,2789 Z M 4943,2779 C 4937,2801 4924,2807 4915,2808 4921,2804 4928,2797 4931,2784 4940,2752 4914,2742 4914,2742 4914,2742 4905,2738 4891,2741 4912,2731 4926,2738 4926,2738 4926,2738 4952,2747 4943,2779 Z"/>
    <defs>
     <clipPath id="clip_path_2" clipPathUnits="userSpaceOnUse">
      <path d="M 4579,2559 L 4578,2561 4575,2568 C 4575,2568 4567,2575 4567,2575 4560,2580 4552,2587 4549,2597 4549,2597 4546,2607 4551,2617 4555,2624 4563,2630 4575,2634 4603,2641 4612,2619 4612,2618 4613,2617 4619,2603 4607,2581 4605,2576 4605,2573 4606,2570 L 4607,2567 4699,2594 C 4699,2594 4676,2670 4673,2678 4674,2678 4674,2678 4675,2678 4700,2665 4716,2672 4717,2673 4717,2673 4745,2683 4736,2718 4732,2731 4725,2741 4716,2746 4704,2752 4692,2748 4691,2748 4679,2744 4672,2735 4667,2728 4667,2728 4661,2721 4661,2721 4659,2727 4635,2807 4635,2807 4635,2807 4557,2784 4550,2782 4550,2783 4550,2784 4551,2785 4557,2796 4559,2806 4559,2813 4559,2821 4556,2826 4556,2827 4556,2827 4545,2855 4511,2846 4497,2842 4488,2835 4483,2826 4481,2820 4480,2815 4480,2811 4480,2805 4481,2802 4481,2801 4485,2789 4494,2782 4501,2777 4501,2777 4508,2770 4508,2770 4508,2770 4509,2770 4509,2769 4503,2767 4422,2743 4422,2743 L 4450,2650 4453,2651 4458,2654 C 4458,2654 4466,2662 4466,2662 4471,2669 4477,2677 4487,2680 4488,2680 4497,2683 4507,2678 4515,2674 4521,2666 4524,2654 4532,2626 4510,2617 4509,2617 4508,2616 4494,2610 4472,2622 4467,2623 4464,2624 4462,2623 L 4458,2622 4486,2531 4579,2559 Z"/>
     </clipPath>
    </defs>
    <g clip-path="url(#clip_path_2)">
     <path fill="rgb(98,148,213)" stroke="none" d="M 4622,2449 L 4580,2474 4742,2743 4783,2718 4622,2449 Z"/>
     <path fill="rgb(98,148,213)" stroke="none" d="M 4596,2465 L 4569,2481 4730,2750 4757,2734 4596,2465 Z"/>
     <path fill="rgb(96,145,209)" stroke="none" d="M 4584,2472 L 4557,2488 4718,2757 4746,2741 4584,2472 Z"/>
     <path fill="rgb(93,142,205)" stroke="none" d="M 4572,2479 L 4545,2495 4707,2764 4734,2748 4572,2479 Z"/>
     <path fill="rgb(91,138,201)" stroke="none" d="M 4561,2486 L 4534,2502 4695,2771 4722,2755 4561,2486 Z"/>
     <path fill="rgb(89,135,196)" stroke="none" d="M 4549,2493 L 4522,2509 4683,2778 4711,2762 4549,2493 Z"/>
     <path fill="rgb(86,132,192)" stroke="none" d="M 4538,2500 L 4510,2516 4672,2785 4699,2769 4538,2500 Z"/>
     <path fill="rgb(84,129,188)" stroke="none" d="M 4526,2507 L 4499,2523 4660,2792 4687,2776 4526,2507 Z"/>
     <path fill="rgb(81,126,184)" stroke="none" d="M 4514,2514 L 4487,2530 4648,2799 4676,2783 4514,2514 Z"/>
     <path fill="rgb(79,122,180)" stroke="none" d="M 4503,2521 L 4475,2537 4637,2806 4664,2790 4503,2521 Z"/>
     <path fill="rgb(77,119,176)" stroke="none" d="M 4491,2528 L 4464,2544 4625,2813 4652,2797 4491,2528 Z"/>
     <path fill="rgb(74,116,171)" stroke="none" d="M 4479,2535 L 4452,2551 4613,2820 4641,2804 4479,2535 Z"/>
     <path fill="rgb(72,113,167)" stroke="none" d="M 4468,2542 L 4440,2558 4602,2827 4629,2811 4468,2542 Z"/>
     <path fill="rgb(70,109,163)" stroke="none" d="M 4456,2549 L 4429,2565 4590,2834 4617,2818 4456,2549 Z"/>
     <path fill="rgb(67,106,159)" stroke="none" d="M 4444,2556 L 4417,2572 4578,2841 4606,2825 4444,2556 Z"/>
     <path fill="rgb(65,103,155)" stroke="none" d="M 4433,2563 L 4405,2579 4567,2848 4594,2832 4433,2563 Z"/>
     <path fill="rgb(62,100,151)" stroke="none" d="M 4421,2570 L 4394,2586 4555,2855 4582,2839 4421,2570 Z"/>
     <path fill="rgb(60,97,146)" stroke="none" d="M 4409,2577 L 4382,2593 4543,2862 4571,2846 4409,2577 Z"/>
     <path fill="rgb(58,93,142)" stroke="none" d="M 4398,2584 L 4370,2600 4532,2869 4559,2853 4398,2584 Z"/>
     <path fill="rgb(55,90,138)" stroke="none" d="M 4386,2591 L 4359,2607 4520,2876 4547,2860 4386,2591 Z"/>
     <path fill="rgb(53,87,134)" stroke="none" d="M 4374,2598 L 4337,2620 4499,2889 4536,2867 4374,2598 Z"/>
    </g>
    <path fill="rgb(61,98,148)" stroke="none" d="M 4484,2527 L 4490,2529 4577,2555 4582,2556 4581,2562 C 4580,2564 4579,2567 4578,2569 L 4578,2570 4577,2570 C 4575,2573 4572,2575 4569,2577 4562,2583 4555,2588 4552,2598 L 4552,2598 4552,2598 C 4552,2598 4549,2607 4554,2615 4557,2622 4565,2627 4576,2631 4576,2631 4575,2631 4575,2631 4579,2632 4583,2632 4586,2632 4604,2632 4609,2617 4609,2617 L 4610,2617 4610,2616 4610,2616 C 4610,2616 4615,2603 4604,2583 L 4604,2582 4604,2582 C 4602,2577 4602,2572 4603,2569 L 4605,2563 4611,2565 4697,2591 4702,2592 4701,2598 4678,2673 C 4687,2669 4695,2667 4703,2667 4711,2667 4716,2669 4718,2670 4718,2670 4718,2670 4718,2670 4718,2670 4718,2670 4718,2670 4718,2670 4718,2670 4718,2670 4718,2670 4718,2670 4718,2670 4718,2670 4718,2670 4718,2670 4718,2670 4718,2670 4718,2670 4720,2671 4726,2673 4732,2680 4738,2687 4744,2699 4739,2719 L 4739,2719 4739,2719 C 4730,2748 4711,2752 4701,2752 4695,2752 4691,2751 4690,2751 4690,2751 4691,2751 4691,2751 4677,2747 4670,2737 4664,2730 4663,2729 4663,2728 4662,2727 L 4639,2805 4637,2811 4631,2809 4555,2786 C 4566,2809 4560,2825 4559,2828 4558,2831 4549,2851 4524,2851 4520,2851 4515,2850 4510,2849 L 4510,2849 4510,2849 C 4496,2845 4486,2837 4480,2827 4474,2815 4478,2802 4478,2801 4482,2787 4492,2780 4499,2774 4501,2773 4502,2772 4503,2771 L 4424,2747 4418,2745 4420,2739 4446,2652 4448,2646 4454,2648 C 4456,2649 4458,2650 4460,2651 L 4460,2651 4461,2652 C 4463,2654 4466,2657 4468,2660 4473,2667 4479,2674 4488,2677 L 4488,2677 4488,2677 C 4489,2677 4491,2678 4495,2678 4507,2678 4516,2669 4521,2653 4524,2643 4523,2634 4517,2627 4513,2622 4508,2620 4508,2619 L 4507,2619 4507,2619 4507,2619 C 4507,2619 4503,2618 4497,2618 4490,2618 4482,2620 4473,2625 L 4473,2625 4472,2625 C 4469,2626 4467,2627 4464,2627 4463,2627 4462,2626 4461,2626 L 4455,2625 4456,2618 4482,2533 4484,2527 Z M 4488,2534 L 4462,2620 C 4463,2620 4464,2620 4464,2620 4466,2620 4468,2620 4470,2619 4481,2613 4491,2611 4497,2611 4505,2611 4510,2614 4510,2614 4510,2614 4529,2621 4529,2643 4529,2647 4528,2651 4527,2655 4520,2680 4505,2684 4495,2684 4490,2684 4486,2683 4486,2683 4470,2678 4464,2662 4456,2656 4455,2655 4453,2655 4452,2654 L 4426,2741 4513,2767 C 4513,2769 4512,2771 4511,2772 4511,2772 4510,2773 4510,2773 L 4510,2773 C 4504,2780 4489,2787 4484,2802 4484,2802 4483,2806 4483,2811 4483,2821 4487,2836 4512,2843 4516,2844 4520,2845 4524,2845 4546,2845 4553,2825 4553,2825 4553,2825 4555,2821 4555,2813 4555,2806 4554,2797 4548,2786 4548,2785 4547,2785 4547,2784 4547,2784 4547,2784 4547,2784 4547,2782 4547,2781 4547,2780 4547,2779 4547,2778 4547,2777 L 4633,2803 4659,2716 C 4660,2717 4661,2717 4662,2718 4670,2724 4676,2740 4692,2745 4692,2745 4696,2746 4701,2746 4711,2746 4726,2742 4733,2717 4734,2712 4735,2708 4735,2705 4735,2682 4716,2676 4716,2676 4716,2676 4711,2673 4703,2673 4696,2673 4687,2675 4676,2681 4676,2681 4676,2681 4676,2681 4676,2681 4675,2681 4675,2681 4673,2682 4672,2682 4670,2682 4670,2682 4669,2682 4669,2682 L 4695,2597 4609,2571 C 4609,2572 4609,2573 4609,2574 4609,2575 4609,2577 4610,2580 4616,2591 4617,2600 4617,2607 4617,2615 4615,2619 4615,2619 4615,2619 4608,2638 4586,2638 4582,2638 4578,2638 4574,2637 4549,2629 4545,2614 4545,2605 4545,2599 4546,2596 4546,2596 4551,2580 4566,2573 4573,2566 4574,2564 4575,2562 4575,2561 L 4488,2534 Z"/>
    <path fill="rgb(255,255,255)" fill-opacity="0.298" stroke="rgb(255,255,255)" stroke-opacity="0.298" d="M 4563,2570 C 4564,2568 4565,2566 4565,2565 L 4486,2541 4488,2534 4575,2561 C 4575,2562 4574,2564 4573,2566 4566,2573 4551,2580 4546,2596 4546,2596 4536,2625 4574,2637 4582,2639 4589,2639 4594,2637 4588,2642 4578,2644 4564,2641 4526,2629 4536,2600 4536,2600 4541,2584 4557,2577 4563,2570 Z M 4695,2597 L 4669,2682 C 4671,2682 4672,2682 4674,2681 4672,2682 4669,2684 4666,2685 4664,2686 4661,2687 4659,2686 L 4685,2601 4609,2578 C 4608,2575 4608,2573 4609,2571 L 4695,2597 Z M 4452,2654 C 4453,2655 4455,2655 4456,2656 4464,2662 4470,2678 4486,2683 4486,2683 4493,2685 4502,2683 4490,2692 4477,2687 4477,2687 4463,2683 4456,2670 4449,2663 L 4452,2654 Z M 4469,2620 C 4469,2619 4470,2619 4471,2619 4471,2619 4470,2619 4470,2619 4470,2619 4469,2619 4469,2620 Z M 4538,2790 C 4537,2787 4537,2784 4537,2782 L 4547,2785 C 4548,2785 4548,2786 4548,2786 4561,2810 4553,2825 4553,2825 4553,2825 4548,2840 4532,2844 4541,2838 4544,2830 4544,2830 4544,2830 4551,2814 4538,2790 Z M 4733,2717 C 4727,2736 4717,2743 4708,2745 4714,2741 4720,2734 4723,2721 4732,2689 4706,2680 4706,2680 4706,2680 4695,2674 4677,2681 4700,2668 4716,2675 4716,2675 4716,2675 4741,2685 4733,2717 Z M 4653,2722 C 4654,2723 4655,2724 4656,2726 L 4633,2803 4625,2801 4649,2720 C 4650,2721 4651,2721 4653,2722 Z"/>
    <defs>
     <clipPath id="clip_path_3" clipPathUnits="userSpaceOnUse">
      <path d="M 4878,2347 C 4892,2351 4901,2358 4906,2367 4909,2373 4910,2378 4910,2382 4910,2388 4908,2391 4908,2392 4905,2404 4896,2411 4889,2417 L 4881,2423 C 4881,2423 4881,2424 4881,2424 4887,2426 4968,2449 4968,2449 L 4941,2543 4938,2541 4933,2539 C 4933,2539 4925,2531 4925,2531 4920,2524 4914,2516 4903,2513 4903,2513 4893,2510 4884,2515 4876,2519 4870,2527 4867,2539 4860,2568 4882,2576 4883,2577 4884,2577 4898,2583 4920,2571 4924,2569 4927,2569 4930,2570 L 4933,2570 4907,2662 4813,2635 4814,2633 4817,2626 C 4817,2626 4825,2619 4825,2619 4832,2613 4840,2607 4843,2597 4843,2597 4846,2587 4841,2577 4837,2569 4829,2564 4817,2560 4788,2553 4780,2575 4779,2576 4779,2577 4773,2591 4785,2613 4787,2618 4787,2622 4786,2625 L 4785,2627 4693,2601 C 4693,2601 4715,2525 4717,2517 4717,2517 4716,2517 4716,2517 4691,2531 4675,2523 4674,2523 4674,2523 4646,2512 4654,2478 4662,2452 4678,2447 4687,2446 4687,2446 4695,2446 4699,2448 L 4699,2448 C 4711,2451 4718,2460 4724,2467 4724,2467 4729,2473 4730,2474 4732,2467 4755,2388 4755,2388 4755,2388 4832,2410 4840,2412 4839,2411 4839,2410 4839,2409 4832,2397 4831,2387 4831,2380 4831,2373 4832,2369 4833,2367 L 4833,2367 C 4833,2367 4843,2339 4878,2347 L 4878,2347 Z"/>
     </clipPath>
    </defs>
    <g clip-path="url(#clip_path_3)">
     <path fill="rgb(255,242,84)" stroke="none" d="M 4853,2299 L 4816,2330 5017,2569 5055,2538 4853,2299 Z"/>
     <path fill="rgb(255,242,84)" stroke="none" d="M 4821,2326 L 4812,2333 5014,2572 5022,2565 4821,2326 Z"/>
     <path fill="rgb(255,241,83)" stroke="none" d="M 4817,2329 L 4809,2336 5010,2575 5019,2568 4817,2329 Z"/>
     <path fill="rgb(255,240,82)" stroke="none" d="M 4814,2332 L 4805,2339 5006,2578 5015,2571 4814,2332 Z"/>
     <path fill="rgb(255,239,81)" stroke="none" d="M 4810,2335 L 4801,2342 5003,2581 5011,2574 4810,2335 Z"/>
     <path fill="rgb(255,238,80)" stroke="none" d="M 4806,2338 L 4798,2345 4999,2584 5008,2577 4806,2338 Z"/>
     <path fill="rgb(254,236,79)" stroke="none" d="M 4803,2341 L 4794,2348 4995,2588 5004,2580 4803,2341 Z"/>
     <path fill="rgb(254,235,78)" stroke="none" d="M 4799,2344 L 4790,2351 4992,2591 5000,2583 4799,2344 Z"/>
     <path fill="rgb(254,234,77)" stroke="none" d="M 4795,2347 L 4787,2354 4988,2594 4997,2586 4795,2347 Z"/>
     <path fill="rgb(254,233,76)" stroke="none" d="M 4792,2350 L 4783,2358 4985,2597 4993,2590 4792,2350 Z"/>
     <path fill="rgb(254,232,75)" stroke="none" d="M 4788,2353 L 4780,2361 4981,2600 4989,2593 4788,2353 Z"/>
     <path fill="rgb(254,231,74)" stroke="none" d="M 4784,2356 L 4776,2364 4977,2603 4986,2596 4784,2356 Z"/>
     <path fill="rgb(254,230,73)" stroke="none" d="M 4781,2360 L 4772,2367 4974,2606 4982,2599 4781,2360 Z"/>
     <path fill="rgb(254,229,72)" stroke="none" d="M 4777,2363 L 4769,2370 4970,2609 4978,2602 4777,2363 Z"/>
     <path fill="rgb(253,228,70)" stroke="none" d="M 4773,2366 L 4765,2373 4966,2612 4975,2605 4773,2366 Z"/>
     <path fill="rgb(253,227,69)" stroke="none" d="M 4770,2369 L 4761,2376 4963,2615 4971,2608 4770,2369 Z"/>
     <path fill="rgb(253,225,68)" stroke="none" d="M 4766,2372 L 4758,2379 4959,2618 4968,2611 4766,2372 Z"/>
     <path fill="rgb(253,224,67)" stroke="none" d="M 4763,2375 L 4754,2382 4955,2621 4964,2614 4763,2375 Z"/>
     <path fill="rgb(253,223,66)" stroke="none" d="M 4759,2378 L 4750,2385 4952,2624 4960,2617 4759,2378 Z"/>
     <path fill="rgb(253,222,65)" stroke="none" d="M 4755,2381 L 4747,2388 4948,2627 4957,2620 4755,2381 Z"/>
     <path fill="rgb(253,221,64)" stroke="none" d="M 4752,2384 L 4743,2391 4944,2631 4953,2623 4752,2384 Z"/>
     <path fill="rgb(253,220,63)" stroke="none" d="M 4748,2387 L 4739,2394 4941,2634 4949,2626 4748,2387 Z"/>
     <path fill="rgb(252,219,62)" stroke="none" d="M 4744,2390 L 4736,2397 4937,2637 4946,2629 4744,2390 Z"/>
     <path fill="rgb(252,218,61)" stroke="none" d="M 4741,2393 L 4732,2401 4933,2640 4942,2633 4741,2393 Z"/>
     <path fill="rgb(252,217,60)" stroke="none" d="M 4737,2396 L 4728,2404 4930,2643 4938,2636 4737,2396 Z"/>
     <path fill="rgb(252,216,59)" stroke="none" d="M 4733,2399 L 4725,2407 4926,2646 4935,2639 4733,2399 Z"/>
     <path fill="rgb(252,214,58)" stroke="none" d="M 4730,2403 L 4721,2410 4922,2649 4931,2642 4730,2403 Z"/>
     <path fill="rgb(252,213,57)" stroke="none" d="M 4726,2406 L 4717,2413 4919,2652 4927,2645 4726,2406 Z"/>
     <path fill="rgb(252,212,56)" stroke="none" d="M 4722,2409 L 4714,2416 4915,2655 4924,2648 4722,2409 Z"/>
     <path fill="rgb(252,211,55)" stroke="none" d="M 4719,2412 L 4710,2419 4911,2658 4920,2651 4719,2412 Z"/>
     <path fill="rgb(251,210,54)" stroke="none" d="M 4715,2415 L 4706,2422 4908,2661 4916,2654 4715,2415 Z"/>
     <path fill="rgb(251,209,53)" stroke="none" d="M 4711,2418 L 4703,2425 4904,2664 4913,2657 4711,2418 Z"/>
     <path fill="rgb(251,208,52)" stroke="none" d="M 4708,2421 L 4699,2428 4901,2667 4909,2660 4708,2421 Z"/>
     <path fill="rgb(251,207,51)" stroke="none" d="M 4704,2424 L 4696,2431 4897,2670 4905,2663 4704,2424 Z"/>
     <path fill="rgb(251,206,50)" stroke="none" d="M 4700,2427 L 4692,2434 4893,2674 4902,2666 4700,2427 Z"/>
     <path fill="rgb(251,205,49)" stroke="none" d="M 4697,2430 L 4688,2437 4890,2677 4898,2669 4697,2430 Z"/>
     <path fill="rgb(251,203,48)" stroke="none" d="M 4693,2433 L 4685,2440 4886,2680 4894,2672 4693,2433 Z"/>
     <path fill="rgb(251,202,47)" stroke="none" d="M 4689,2436 L 4681,2444 4882,2683 4891,2676 4689,2436 Z"/>
     <path fill="rgb(250,201,45)" stroke="none" d="M 4686,2439 L 4677,2447 4879,2686 4887,2679 4686,2439 Z"/>
     <path fill="rgb(250,200,44)" stroke="none" d="M 4682,2442 L 4674,2450 4875,2689 4884,2682 4682,2442 Z"/>
     <path fill="rgb(250,199,43)" stroke="none" d="M 4679,2446 L 4670,2453 4871,2692 4880,2685 4679,2446 Z"/>
     <path fill="rgb(250,198,42)" stroke="none" d="M 4675,2449 L 4666,2456 4868,2695 4876,2688 4675,2449 Z"/>
     <path fill="rgb(250,197,41)" stroke="none" d="M 4671,2452 L 4663,2459 4864,2698 4873,2691 4671,2452 Z"/>
     <path fill="rgb(250,196,40)" stroke="none" d="M 4668,2455 L 4659,2462 4860,2701 4869,2694 4668,2455 Z"/>
     <path fill="rgb(250,195,39)" stroke="none" d="M 4664,2458 L 4655,2465 4857,2704 4865,2697 4664,2458 Z"/>
     <path fill="rgb(250,194,38)" stroke="none" d="M 4660,2461 L 4652,2468 4853,2707 4862,2700 4660,2461 Z"/>
     <path fill="rgb(249,192,37)" stroke="none" d="M 4657,2464 L 4648,2471 4849,2710 4858,2703 4657,2464 Z"/>
     <path fill="rgb(249,191,36)" stroke="none" d="M 4653,2467 L 4644,2474 4846,2714 4854,2706 4653,2467 Z"/>
     <path fill="rgb(249,190,35)" stroke="none" d="M 4649,2470 L 4641,2477 4842,2717 4851,2709 4649,2470 Z"/>
     <path fill="rgb(249,189,34)" stroke="none" d="M 4646,2473 L 4637,2480 4838,2720 4847,2712 4646,2473 Z"/>
     <path fill="rgb(249,188,33)" stroke="none" d="M 4642,2476 L 4608,2505 4809,2744 4843,2716 4642,2476 Z"/>
    </g>
    <path fill="rgb(226,150,59)" stroke="none" d="M 4879,2344 L 4879,2344 4879,2344 C 4893,2349 4903,2356 4909,2366 4915,2378 4912,2391 4911,2392 4907,2406 4898,2413 4890,2419 4889,2420 4888,2421 4886,2422 L 4966,2445 4972,2447 4970,2453 4945,2540 4943,2546 4937,2544 C 4935,2544 4933,2543 4931,2542 L 4931,2541 4931,2541 C 4928,2539 4926,2536 4923,2533 4918,2526 4912,2519 4903,2516 L 4902,2516 4902,2516 C 4902,2516 4900,2515 4896,2515 4884,2515 4875,2524 4870,2540 4870,2540 4870,2540 4870,2540 4870,2540 4870,2540 4870,2540 4870,2540 4870,2540 4870,2540 4867,2551 4869,2560 4875,2567 4879,2572 4884,2574 4884,2574 L 4884,2574 4885,2574 4884,2574 C 4885,2574 4888,2575 4894,2575 4901,2575 4910,2573 4918,2568 L 4919,2568 4919,2568 C 4922,2567 4925,2566 4927,2566 4928,2566 4929,2566 4930,2567 L 4937,2568 4935,2574 4910,2660 4909,2666 4903,2664 4815,2639 4810,2638 4811,2632 C 4812,2630 4813,2627 4814,2625 L 4814,2624 4815,2624 C 4817,2621 4820,2619 4823,2616 4830,2611 4837,2605 4840,2596 L 4840,2596 4840,2596 C 4840,2596 4843,2587 4838,2579 4834,2572 4827,2567 4816,2563 4812,2562 4809,2562 4806,2562 4788,2562 4782,2577 4782,2577 L 4782,2578 4782,2578 4782,2578 C 4782,2578 4776,2591 4788,2612 L 4788,2612 4788,2613 C 4790,2618 4790,2622 4789,2626 L 4787,2631 4781,2629 4695,2605 4689,2603 4691,2597 4713,2522 C 4704,2526 4695,2528 4687,2528 4679,2528 4674,2526 4673,2526 4671,2525 4665,2522 4659,2516 4653,2509 4647,2496 4651,2477 L 4651,2477 4651,2477 C 4660,2448 4679,2443 4689,2443 4695,2443 4699,2444 4699,2445 L 4699,2445 C 4713,2448 4720,2458 4726,2465 4727,2466 4728,2467 4728,2468 L 4751,2390 4752,2384 4758,2385 4835,2407 C 4823,2384 4829,2368 4830,2366 4831,2363 4840,2343 4865,2343 4870,2343 4874,2343 4879,2344 Z M 4877,2350 C 4873,2349 4869,2349 4865,2349 4843,2349 4836,2368 4836,2368 4836,2368 4834,2373 4834,2380 4834,2387 4835,2396 4842,2408 4843,2410 4843,2412 4843,2414 4843,2415 4843,2415 4843,2416 L 4757,2391 4733,2473 4733,2473 4732,2479 C 4730,2478 4729,2478 4728,2477 4727,2476 4727,2476 4726,2475 4726,2475 4726,2475 4726,2475 4720,2468 4713,2455 4698,2451 4698,2451 4694,2449 4689,2449 4680,2449 4665,2454 4657,2479 4656,2483 4656,2487 4656,2491 4656,2513 4675,2520 4675,2520 4675,2520 4680,2522 4687,2522 4694,2522 4703,2520 4715,2514 4717,2513 4719,2513 4721,2513 4721,2513 4721,2513 4722,2513 L 4720,2519 4720,2519 4697,2599 4783,2624 C 4783,2623 4783,2622 4783,2621 4783,2619 4783,2617 4782,2615 4776,2603 4774,2594 4774,2587 4774,2580 4776,2575 4776,2575 4776,2575 4783,2556 4806,2556 4809,2556 4813,2556 4817,2557 4843,2565 4847,2580 4847,2589 4847,2594 4846,2598 4846,2598 4841,2614 4826,2621 4819,2628 4818,2630 4818,2632 4817,2633 L 4904,2659 4929,2573 C 4929,2572 4928,2572 4927,2572 4926,2572 4924,2573 4921,2574 4910,2580 4901,2582 4894,2582 4886,2582 4882,2580 4882,2580 4882,2580 4862,2573 4862,2550 4862,2547 4863,2543 4864,2538 4871,2513 4886,2509 4896,2509 4901,2509 4904,2510 4904,2510 4920,2515 4927,2530 4935,2536 4936,2537 4938,2538 4939,2538 L 4964,2451 4877,2426 C 4877,2424 4878,2423 4879,2421 4885,2414 4901,2407 4905,2391 4905,2391 4906,2387 4906,2382 4906,2373 4902,2358 4877,2350 Z"/>
    <path fill="rgb(255,255,255)" fill-opacity="0.49" stroke="rgb(255,255,255)" stroke-opacity="0.49" d="M 4832,2413 C 4833,2416 4833,2418 4832,2420 L 4755,2398 4757,2391 4832,2413 Z M 4881,2513 C 4874,2517 4868,2525 4864,2538 4856,2570 4882,2580 4882,2580 4882,2580 4891,2584 4906,2580 4885,2590 4872,2583 4872,2583 4872,2583 4845,2574 4854,2542 4860,2521 4872,2515 4881,2513 Z M 4698,2451 C 4711,2454 4718,2465 4724,2473 L 4721,2482 C 4720,2482 4719,2481 4718,2481 4710,2475 4704,2459 4687,2454 4687,2454 4682,2452 4674,2454 4686,2447 4698,2451 4698,2451 Z M 4710,2517 C 4706,2518 4703,2520 4699,2520 4701,2520 4703,2519 4704,2518 4706,2517 4708,2517 4710,2517 Z M 4905,2391 C 4901,2407 4885,2414 4879,2421 4878,2423 4877,2424 4877,2426 L 4964,2451 4939,2538 C 4938,2538 4936,2537 4935,2536 4933,2535 4932,2534 4931,2533 L 4954,2455 4866,2430 C 4867,2428 4868,2426 4869,2425 4875,2417 4890,2411 4895,2394 4895,2394 4905,2365 4867,2354 4860,2352 4854,2352 4849,2353 4855,2349 4864,2347 4877,2350 4915,2361 4905,2391 4905,2391 Z M 4789,2560 C 4780,2566 4776,2575 4776,2575 4776,2575 4769,2591 4782,2615 4784,2619 4784,2621 4783,2624 L 4772,2621 C 4772,2620 4772,2619 4772,2618 4758,2595 4766,2579 4766,2579 4766,2579 4772,2563 4789,2560 Z M 4921,2574 C 4925,2572 4927,2572 4929,2573 L 4904,2659 4896,2656 4919,2576 C 4918,2576 4917,2576 4916,2576 4918,2575 4920,2575 4921,2574 Z"/>
    <defs>
     <clipPath id="clip_path_4" clipPathUnits="userSpaceOnUse">
      <path d="M 4641,2353 L 4640,2356 4637,2361 C 4637,2362 4629,2369 4629,2369 4622,2374 4614,2380 4611,2391 4611,2391 4608,2401 4613,2410 4617,2418 4625,2424 4637,2427 4666,2435 4674,2413 4675,2412 4675,2411 4681,2397 4669,2375 4668,2371 4667,2367 4668,2365 L 4669,2361 4761,2389 4733,2482 4730,2481 4724,2478 C 4724,2478 4717,2470 4717,2470 4711,2463 4705,2455 4695,2452 4694,2452 4685,2449 4675,2454 4667,2458 4661,2466 4658,2478 4650,2507 4673,2515 4674,2515 4675,2516 4688,2522 4711,2510 4715,2508 4719,2508 4722,2509 L 4725,2510 4698,2602 C 4698,2602 4622,2579 4614,2577 4614,2577 4614,2578 4614,2578 4620,2590 4622,2599 4622,2607 4622,2615 4620,2620 4619,2620 4619,2620 4609,2648 4575,2639 4561,2635 4552,2629 4547,2619 4544,2614 4543,2609 4543,2604 4543,2599 4544,2595 4544,2595 4548,2583 4557,2576 4564,2570 4564,2570 4570,2565 4571,2564 4564,2562 4485,2539 4485,2539 4485,2539 4508,2461 4510,2454 4509,2454 4508,2454 4507,2455 4482,2468 4465,2460 4465,2460 4465,2460 4436,2449 4445,2415 4455,2383 4476,2383 4485,2384 4487,2384 4489,2385 4490,2385 L 4490,2385 C 4490,2385 4490,2385 4490,2385 4502,2389 4509,2398 4515,2405 4515,2405 4521,2412 4521,2412 4521,2412 4522,2412 4522,2412 4524,2406 4548,2326 4548,2326 L 4641,2353 Z"/>
     </clipPath>
    </defs>
    <g clip-path="url(#clip_path_4)">
     <path fill="rgb(81,213,109)" stroke="none" d="M 4685,2244 L 4636,2273 4797,2542 4846,2513 4685,2244 Z"/>
     <path fill="rgb(81,213,109)" stroke="none" d="M 4651,2264 L 4624,2280 4785,2549 4812,2533 4651,2264 Z"/>
     <path fill="rgb(79,212,107)" stroke="none" d="M 4640,2271 L 4613,2287 4774,2556 4801,2540 4640,2271 Z"/>
     <path fill="rgb(77,211,106)" stroke="none" d="M 4628,2278 L 4601,2294 4762,2563 4789,2547 4628,2278 Z"/>
     <path fill="rgb(74,210,104)" stroke="none" d="M 4617,2284 L 4589,2301 4750,2570 4778,2554 4617,2284 Z"/>
     <path fill="rgb(72,208,102)" stroke="none" d="M 4605,2291 L 4578,2308 4739,2577 4766,2561 4605,2291 Z"/>
     <path fill="rgb(70,207,101)" stroke="none" d="M 4593,2298 L 4566,2315 4727,2584 4754,2568 4593,2298 Z"/>
     <path fill="rgb(68,206,99)" stroke="none" d="M 4582,2305 L 4555,2322 4716,2591 4743,2575 4582,2305 Z"/>
     <path fill="rgb(66,205,97)" stroke="none" d="M 4570,2312 L 4543,2328 4704,2598 4731,2581 4570,2312 Z"/>
     <path fill="rgb(63,204,96)" stroke="none" d="M 4559,2319 L 4531,2335 4692,2605 4720,2588 4559,2319 Z"/>
     <path fill="rgb(61,203,94)" stroke="none" d="M 4547,2326 L 4520,2342 4681,2612 4708,2595 4547,2326 Z"/>
     <path fill="rgb(59,202,93)" stroke="none" d="M 4536,2333 L 4508,2349 4669,2619 4697,2602 4536,2333 Z"/>
     <path fill="rgb(57,200,91)" stroke="none" d="M 4524,2340 L 4497,2356 4658,2625 4685,2609 4524,2340 Z"/>
     <path fill="rgb(55,199,89)" stroke="none" d="M 4512,2347 L 4485,2363 4646,2632 4673,2616 4512,2347 Z"/>
     <path fill="rgb(52,198,88)" stroke="none" d="M 4501,2354 L 4474,2370 4635,2639 4662,2623 4501,2354 Z"/>
     <path fill="rgb(50,197,86)" stroke="none" d="M 4489,2361 L 4462,2377 4623,2646 4650,2630 4489,2361 Z"/>
     <path fill="rgb(48,196,84)" stroke="none" d="M 4478,2368 L 4450,2384 4611,2653 4639,2637 4478,2368 Z"/>
     <path fill="rgb(46,195,83)" stroke="none" d="M 4466,2375 L 4439,2391 4600,2660 4627,2644 4466,2375 Z"/>
     <path fill="rgb(44,193,81)" stroke="none" d="M 4454,2381 L 4427,2398 4588,2667 4615,2651 4454,2381 Z"/>
     <path fill="rgb(41,192,79)" stroke="none" d="M 4443,2388 L 4416,2405 4577,2674 4604,2658 4443,2388 Z"/>
     <path fill="rgb(39,191,78)" stroke="none" d="M 4431,2395 L 4404,2412 4565,2681 4592,2665 4431,2395 Z"/>
     <path fill="rgb(37,190,76)" stroke="none" d="M 4420,2402 L 4400,2414 4561,2683 4581,2672 4420,2402 Z"/>
    </g>
    <path fill="rgb(5,147,62)" stroke="none" d="M 4546,2322 L 4552,2324 4639,2349 4645,2351 4643,2357 C 4642,2359 4641,2361 4640,2363 L 4640,2363 4640,2364 C 4637,2366 4634,2369 4631,2371 4624,2376 4617,2382 4614,2392 L 4614,2392 4614,2392 C 4614,2392 4611,2401 4616,2409 4620,2416 4627,2421 4638,2424 4642,2425 4645,2426 4648,2426 4666,2426 4672,2411 4672,2411 L 4672,2410 4672,2410 4672,2410 C 4672,2410 4678,2397 4667,2376 L 4666,2376 4666,2375 C 4665,2371 4664,2367 4665,2364 L 4666,2358 4673,2359 4758,2385 4764,2387 4763,2392 4737,2480 4735,2485 4730,2484 C 4727,2483 4725,2482 4722,2481 L 4722,2481 4722,2480 C 4719,2478 4717,2475 4714,2472 4709,2465 4703,2458 4694,2455 L 4694,2455 4694,2455 C 4694,2455 4691,2454 4687,2454 4675,2454 4666,2462 4661,2479 4658,2490 4660,2498 4665,2505 4669,2510 4675,2512 4675,2512 L 4675,2513 4675,2513 4675,2513 C 4675,2513 4679,2514 4685,2514 4692,2514 4701,2512 4709,2507 L 4710,2507 4710,2507 C 4713,2506 4716,2505 4718,2505 4720,2505 4721,2506 4723,2506 L 4729,2508 4727,2514 4702,2599 4700,2605 4694,2604 4619,2582 C 4629,2604 4623,2619 4622,2621 4621,2624 4612,2644 4587,2644 4583,2644 4578,2644 4574,2642 L 4574,2642 4574,2642 C 4559,2638 4549,2631 4544,2621 4537,2608 4541,2596 4541,2594 4545,2581 4555,2573 4562,2568 4563,2567 4564,2566 4565,2566 L 4487,2542 4481,2541 4483,2535 4505,2459 C 4496,2463 4487,2466 4478,2466 4471,2466 4465,2464 4464,2463 4464,2463 4464,2463 4464,2463 4464,2463 4464,2463 4464,2463 4464,2463 4464,2463 4464,2463 4464,2463 4464,2463 4464,2463 4464,2463 4464,2463 4464,2463 4464,2463 4464,2463 4464,2463 4464,2463 4464,2463 4463,2463 4463,2463 4463,2463 4463,2463 4463,2463 4463,2463 4463,2463 4463,2463 4464,2463 4464,2463 4464,2463 4463,2463 4463,2463 4463,2463 4463,2463 4463,2463 4461,2462 4455,2459 4449,2453 4443,2446 4437,2433 4442,2414 L 4442,2414 4442,2414 C 4451,2385 4470,2381 4480,2381 4486,2381 4490,2382 4491,2382 4504,2386 4512,2396 4517,2403 4518,2404 4519,2406 4520,2407 L 4544,2328 4546,2322 Z M 4550,2330 L 4524,2417 C 4522,2416 4521,2416 4519,2414 4519,2414 4519,2414 4518,2414 4518,2414 4518,2414 4518,2414 4511,2407 4505,2393 4489,2388 4489,2388 4485,2387 4480,2387 4471,2387 4456,2391 4448,2416 4447,2420 4447,2424 4447,2428 4447,2450 4466,2457 4466,2457 4466,2457 4470,2459 4478,2459 4485,2459 4494,2458 4505,2452 4508,2451 4510,2450 4511,2450 4512,2450 4513,2451 4514,2451 L 4489,2537 4576,2562 C 4575,2563 4575,2565 4574,2566 4573,2566 4573,2567 4572,2567 4572,2568 4572,2568 4572,2568 4565,2574 4552,2581 4547,2596 4547,2596 4546,2599 4546,2604 4546,2614 4550,2629 4575,2637 4580,2638 4584,2638 4587,2638 4610,2638 4617,2619 4617,2619 4617,2619 4619,2614 4619,2607 4619,2600 4617,2591 4611,2579 4611,2579 4611,2579 4611,2579 4611,2579 4611,2579 4611,2579 4610,2577 4610,2575 4610,2573 4610,2573 4610,2573 4610,2572 L 4696,2598 4721,2512 C 4720,2512 4719,2511 4718,2511 4716,2511 4714,2512 4712,2513 4701,2519 4692,2520 4685,2520 4677,2520 4673,2518 4673,2518 4673,2518 4653,2511 4653,2489 4653,2485 4654,2481 4655,2477 4662,2452 4677,2448 4687,2448 4692,2448 4696,2449 4696,2449 4712,2454 4718,2469 4726,2476 4728,2477 4729,2477 4731,2478 L 4757,2391 4671,2365 C 4671,2366 4671,2367 4671,2367 4671,2369 4671,2371 4672,2373 4678,2384 4680,2394 4680,2401 4680,2408 4678,2413 4678,2413 4678,2413 4671,2432 4648,2432 4645,2432 4641,2432 4636,2430 4611,2423 4607,2408 4607,2398 4607,2393 4608,2390 4608,2390 4613,2374 4629,2367 4635,2360 4636,2358 4636,2357 4637,2355 L 4550,2330 Z"/>
    <path fill="rgb(255,255,255)" fill-opacity="0.298" stroke="rgb(255,255,255)" stroke-opacity="0.298" d="M 4500,2454 C 4497,2456 4494,2457 4492,2457 4493,2457 4494,2456 4495,2455 4497,2455 4499,2454 4500,2454 Z M 4517,2412 L 4514,2421 C 4512,2420 4511,2419 4509,2418 4502,2412 4495,2397 4479,2392 4479,2392 4473,2390 4465,2391 4477,2384 4489,2388 4489,2388 4503,2392 4510,2405 4517,2412 Z M 4607,2623 C 4607,2623 4614,2607 4601,2583 4600,2580 4600,2578 4600,2576 L 4611,2580 C 4624,2604 4617,2619 4617,2619 4617,2619 4611,2634 4594,2638 4603,2632 4607,2623 4607,2623 Z M 4637,2355 C 4636,2357 4636,2358 4635,2360 4629,2367 4613,2374 4608,2390 4608,2390 4598,2419 4636,2430 4644,2432 4650,2432 4655,2431 4649,2435 4639,2438 4626,2434 4588,2423 4598,2394 4598,2394 4603,2377 4619,2371 4625,2364 4626,2362 4626,2361 4627,2359 L 4548,2336 4550,2330 4637,2355 Z M 4712,2513 C 4716,2511 4719,2511 4721,2512 L 4696,2598 4687,2595 4711,2516 C 4710,2515 4708,2515 4707,2515 4708,2515 4710,2514 4712,2513 Z M 4655,2477 C 4647,2509 4673,2518 4673,2518 4673,2518 4682,2523 4698,2518 4676,2529 4663,2522 4663,2522 4663,2522 4637,2513 4645,2481 4651,2460 4662,2454 4672,2452 4665,2456 4659,2464 4655,2477 Z M 4672,2372 C 4671,2369 4671,2367 4671,2365 L 4757,2391 4731,2478 C 4729,2477 4728,2477 4726,2476 4725,2475 4724,2474 4723,2473 L 4747,2395 4672,2372 Z"/>
   </g>
  </g>
 </g>
</svg>