/* XPM */
static char *dummy[]={
"50 50 198 2",
"#3 c #116ce4",
"ax c #1871e5",
"as c #2377e6",
"ar c #2478e6",
"aq c #2578e6",
"ab c #2679e6",
"ap c #277ae7",
"#k c #281d17",
"aa c #287ae7",
"a# c #297be7",
"a. c #2a7ce7",
"#M c #2b211b",
"#9 c #2b7ce7",
"#8 c #2c7de7",
"ac c #3683e8",
"ay c #3784e8",
"aA c #3d87e9",
".M c #3e342f",
"#i c #403731",
"#. c #413832",
"#r c #433934",
"#O c #443a35",
"aj c #463c37",
"#y c #463d38",
"aI c #488eea",
"#C c #4a403b",
"aH c #4a8fea",
".Y c #4b423d",
"aG c #4b90eb",
".L c #4c433e",
"aw c #4c90eb",
"#K c #4d443f",
"aF c #4d91eb",
"#F c #4e4540",
"aD c #4e91eb",
"aE c #4f92eb",
"#n c #504742",
"aC c #5093eb",
"aB c #5194eb",
"aY c #5294eb",
"aZ c #5395ec",
"#4 c #5496ec",
"aV c #5596ec",
".N c #564e49",
"ai c #5697ec",
".T c #574f4a",
"#7 c #5797ec",
"ag c #5898ec",
"#G c #59504c",
"ah c #5998ec",
".U c #5a514d",
"av c #5a99ec",
"#w c #5b534e",
"ao c #5b9aec",
"au c #5c9aec",
"#6 c #5e5651",
"az c #5e9bed",
"aJ c #5e9ced",
"#o c #5f5752",
"aK c #5f9ced",
"aL c #619eed",
"aM c #629eed",
".Z c #635b57",
"aN c #649fed",
"aO c #65a0ee",
"ad c #665f5a",
"aP c #67a1ee",
"#0 c #68605c",
"aQ c #68a2ee",
".2 c #69615d",
"aR c #6aa3ee",
"aS c #6ba3ee",
"aT c #6ca4ee",
"aU c #6da5ee",
"#x c #6f6763",
"aW c #6fa6ef",
"aX c #70a7ef",
"## c #716a66",
"bc c #71a7ef",
"a0 c #72a8ef",
"bb c #73a9ef",
"#q c #746d69",
"ba c #74a9ef",
"b# c #75aaef",
"b. c #76aaef",
"a9 c #77abf0",
"a8 c #78abf0",
"a7 c #79acf0",
"a6 c #7aadf0",
"#j c #7b7470",
"a5 c #7baef0",
"a4 c #7caef0",
"a3 c #7daff0",
"a2 c #7eaff0",
"#h c #7f7875",
"#s c #827c78",
".9 c #867f7c",
"#N c #86807d",
"a1 c #86b4f1",
"ak c #87817e",
"at c #8bb8f2",
"#P c #8f8986",
".1 c #918b88",
"#v c #918c89",
"#t c #928d8a",
"#1 c #938e8b",
"#2 c #93bcf3",
".l c #958f8c",
".a c #96908d",
".i c #96918e",
".p c #97928f",
".z c #989390",
".g c #999491",
"#I c #9a9592",
".G c #9b9693",
".4 c #9c9694",
".v c #9c9795",
".I c #9d9895",
".t c #9f9a97",
".D c #a09b98",
".r c #a19c99",
".W c #a19d9a",
".S c #a49f9d",
".0 c #a5a09e",
".O c #a6a19f",
"#b c #a7a3a0",
".d c #aaa5a3",
".q c #aba6a4",
"#l c #aca8a6",
".7 c #ada9a7",
".y c #aeaaa8",
"#p c #afaba9",
".C c #b1adaa",
"af c #b1adab",
".# c #b2aeac",
".f c #b3afad",
"#f c #b5b1af",
".n c #b6b2b0",
".H c #b6b3b1",
"#5 c #b8b5b3",
".R c #b9b5b3",
".m c #bcb8b6",
"#E c #bcb9b7",
"bd c #bdd6f7",
".J c #bfbcba",
".B c #c2bfbd",
".k c #c4c1bf",
"#R c #c5dbf8",
".h c #c7c5c3",
"#S c #c7dcf9",
".Q c #c9c6c5",
".E c #cac7c6",
"#T c #cadef9",
"#D c #ccc9c8",
".3 c #cccac8",
"#U c #ccdff9",
".P c #cdcbc9",
"#V c #cee1f9",
"#e c #cfcccb",
"#m c #d1cecd",
"#W c #d1e3fa",
"#Q c #d2e3fa",
"#X c #d3e4fa",
"#a c #d4d2d1",
".b c #d6d4d2",
"#Y c #d6e6fa",
"#c c #d7d4d3",
".6 c #dad8d7",
"ae c #dbd9d8",
"#z c #dcdad9",
".c c #dcdbda",
"#Z c #dddcdb",
"#L c #dedcdc",
".A c #dfdddc",
".o c #e1e0df",
".s c #e2e1e0",
"an c #e3e2e1",
"#g c #e6e4e4",
".V c #e7e5e5",
"#H c #e7e6e6",
".x c #e8e7e6",
".K c #ebeae9",
".F c #ececeb",
"#A c #f0efef",
".u c #f1f0f0",
".j c #f2f1f0",
"#J c #f2f2f1",
".5 c #f3f3f2",
".e c #f4f3f3",
"am c #f5f4f4",
"#d c #f6f5f5",
".w c #f7f6f6",
".8 c #f7f7f7",
".X c #fbfbfa",
"al c #fcfbfb",
"#u c #fcfcfc",
"#B c #fefefe",
"Qt c #ffffff",
"QtQtQtQtQtQtQtQtQtQtQtQtQtQtQtQtQtQtQtQtQtQtQtQtQtQtQtQtQtQtQtQtQtQtQtQtQtQtQtQtQtQtQtQtQtQtQtQtQtQt",
"QtQtQtQtQtQtQtQtQtQtQtQtQtQtQtQtQtQtQtQtQtQtQtQtQtQtQtQtQtQtQtQtQtQtQtQtQtQtQtQtQtQtQtQtQtQtQtQtQtQt",
"QtQtQtQtQtQtQtQtQtQtQtQtQtQtQtQtQtQtQtQtQtQt.#.a.bQtQtQtQtQtQtQtQtQtQtQtQtQtQtQtQtQtQtQtQtQtQtQtQtQt",
"QtQtQtQtQtQtQtQtQtQtQtQtQtQtQtQtQtQtQtQtQt.c.d.e.f.g.hQtQtQtQtQtQtQtQtQtQtQtQtQtQtQtQtQtQtQtQtQtQtQt",
"QtQtQtQtQtQtQtQtQtQtQtQtQtQtQtQtQtQtQtQtQt.i.jQtQtQt.k.l.mQtQtQtQtQtQtQtQtQtQtQtQtQtQtQtQtQtQtQtQtQt",
"QtQtQtQtQtQtQtQtQtQtQtQtQtQtQtQtQtQtQtQt.n.bQtQtQtQtQtQt.o.p.qQtQtQtQtQtQtQtQtQtQtQtQtQtQtQtQtQtQtQt",
"QtQtQtQtQtQtQtQtQtQtQtQtQtQtQtQtQtQtQtQt.rQtQtQtQtQtQtQtQtQt.s.r.t.uQtQtQtQtQtQtQtQtQtQtQtQtQtQtQtQt",
"QtQtQtQtQtQtQtQtQtQtQtQtQtQtQtQtQtQtQt.v.wQtQtQtQtQtQtQtQtQtQtQt.x.y.z.AQtQtQtQtQtQtQtQtQtQtQtQtQtQt",
"QtQtQtQtQtQtQtQtQtQtQtQtQtQtQtQtQtQt.k.BQtQtQtQtQtQtQtQtQtQtQtQtQtQt.j.C.D.EQtQtQtQtQtQtQtQtQtQtQtQt",
"QtQtQtQtQtQtQtQtQtQtQtQtQtQtQtQtQt.F.GQtQtQtQt.H.IQtQtQtQtQtQtQtQtQtQtQtQt.J.l.JQtQtQtQtQtQtQtQtQtQt",
"QtQtQtQtQtQtQtQtQtQtQtQtQtQtQtQtQt.r.KQtQtQtQt.L.M.N.OQtQtQtQtQtQtQtQtQtQtQtQt.P.p.yQtQtQtQtQtQtQtQt",
"QtQtQtQtQtQtQtQtQtQtQtQtQtQtQtQt.Q.RQtQtQtQtQt.S.T.M.M.U.fQtQtQtQtQtQtQtQtQtQtQtQt.V.I.W.wQtQtQtQtQt",
"QtQtQtQtQtQtQtQtQtQtQtQtQtQtQtQt.z.XQtQtQtQtQtQtQt.G.Y.M.M.Z.mQtQtQtQtQtQtQtQtQtQtQtQt.k.0QtQtQtQtQt",
"QtQtQtQtQtQtQtQtQtQtQtQtQtQtQt.0.sQtQtQtQtQtQtQtQtQtQt.1.Y.M.M.2.3QtQtQtQtQtQtQtQtQtQt.4.5QtQtQtQtQt",
"QtQtQtQtQtQtQtQtQtQtQtQtQtQt.6.7QtQtQtQtQtQtQtQtQtQtQtQt.8.9#..M.M###aQtQtQtQtQtQtQt#b#cQtQtQtQtQtQt",
"QtQtQtQtQtQtQtQtQtQtQtQtQt#d.i.XQtQtQtQtQt#e#fQtQtQtQtQtQtQt#g#h#i.M.M#j.VQtQtQtQt#g.qQt#kQtQtQtQtQt",
"QtQtQtQtQtQtQtQtQtQtQtQtQt#l#mQtQtQtQtQtQt#n.M#o#pQtQtQtQtQtQtQt.c#q.M.M#r#sQtQtQt#t#u#kQtQtQtQtQtQt",
"QtQtQtQtQtQtQtQtQtQtQtQt.x.DQtQtQtQtQtQtQt#v.L.M.M#w.CQtQtQtQtQtQtQt.P#x.M#yQtQt.C#z#w#kQtQtQtQtQtQt",
"QtQtQtQtQtQtQtQtQtQtQtQt.l#AQtQtQtQtQtQtQtQt#B.1#C.M.M.U.dQtQtQtQtQtQtQt.B#DQt#m.dQt#kQtQtQtQtQtQtQt",
"QtQtQtQtQtQtQtQtQtQtQt#E.QQtQtQtQtQtQtQtQtQtQtQtQt.p#F.M.M#G#lQtQtQtQtQtQtQtQt.v.8#kQtQtQtQtQtQtQtQt",
"QtQtQtQtQtQtQtQtQtQt#H#IQtQtQtQtQtQt#J#v.VQtQtQtQtQtQt.l#K.M.M.NQtQtQtQtQtQt.W#L#k#MQtQtQtQtQtQtQtQt",
"QtQtQtQtQtQtQtQtQtQt.X#JQtQtQtQtQtQt#N.M#O#PQtQtQtQtQtQtQt.I#n#y.5QtQtQtQt#D#fQt#kQtQtQtQtQtQtQtQtQt",
"QtQtQtQtQtQtQtQt#Q#R#S#T#U#V#W#X#YQt#Z#0.M.M#K.IQtQtQtQtQtQtQt.wQtQtQtQtQt#1Qt#kQtQtQtQtQtQtQtQtQtQt",
"QtQtQtQtQtQtQt#2#3#3#3#3#3#3#3#3#3#4QtQt#5#6.M.M#w.nQtQtQtQtQtQtQtQtQtQt.v#g#kQtQtQtQtQtQtQtQtQtQtQt",
"QtQtQtQtQtQtQt#7#3#8#9a.a#aaabab#3acQtQtQtQt.r#F.M.MadaeQtQtQtQtQtQtQt.QafQt#kQtQtQtQtQtQtQtQtQtQtQt",
"QtQtQtQtQtQtQtag#3aha#a#a#a#a#ai#3acQtQtQtQtQtQt#vaj.MakQtQtQtQtQtQt.u.aal#kQtQtQtQtQtQtQtQtQtQtQtQt",
"QtQtQtQtQtQtQtah#3aga#a#a#a#a#ai#3acQtQtQtQtQtQtQt.K.lamQtQtQtQtQtQtaeanQtQtQtQtQtQtQtQtQtQtQtQtQtQt",
"QtQtQtQtQtQtQtao#3aha#a#a#a#a#ai#3#8#8#9#9a.a.a#a#a#aaaaapapabababababaqaqaqararasasatQtQtQtQtQtQtQt",
"QtQtQtQtQtQtQtau#3ava#a#a#a#a#awax#3#3#3#3#3#3#3#3#3#3#3#3#3#3#3#3#3#3#3#3#3#3#3#3#3ayQtQtQtQtQtQtQt",
"QtQtQtQtQtQtQtaz#3aha#a#a#a#a#a#aAaBaCaCaDaDaEaEaEaFaFaDawawawaGaGaGaGaHaHaHaHaIai#3ayQtQtQtQtQtQtQt",
"QtQtQtQtQtQtQtaJ#3aha#a#a#a#a#a#a#a#a#a#a#a#a#a#a#a#a#a#a#a#a#a#a#a#a#a#a#a#a#a#ai#3ayQtQtQtQtQtQtQt",
"QtQtQtQtQtQtQtaK#3aha#a#a#a#a#a#a#a#a#a#a#a#a#a#a#a#a#a#a#a#a#a#a#a#a#a#a#a#a#a#ai#3ayQtQtQtQtQtQtQt",
"QtQtQtQtQtQtQtaL#3aga#a#a#a#a#a#a#a#a#a#a#a#a#a#a#a#a#a#a#a#a#a#a#a#a#a#a#a#a#a#ai#3ayQtQtQtQtQtQtQt",
"QtQtQtQtQtQtQtaM#3aga#a#a#a#a#a#a#a#a#a#a#a#a#a#a#a#a#a#a#a#a#a#a#a#a#a#a#a#a#a#ai#3ayQtQtQtQtQtQtQt",
"QtQtQtQtQtQtQtaN#3aga#a#a#a#a#a#a#a#a#a#a#a#a#a#a#a#a#a#a#a#a#a#a#a#a#a#a#a#a#a#ai#3ayQtQtQtQtQtQtQt",
"QtQtQtQtQtQtQtaO#3aga#a#a#a#a#a#a#a#a#a#a#a#a#a#a#a#a#a#a#a#a#a#a#a#a#a#a#a#a#a#ai#3ayQtQtQtQtQtQtQt",
"QtQtQtQtQtQtQtaP#3aia#a#a#a#a#a#a#a#a#a#a#a#a#a#a#a#a#a#a#a#a#a#a#a#a#a#a#a#a#a#ai#3ayQtQtQtQtQtQtQt",
"QtQtQtQtQtQtQtaQ#3#7a#a#a#a#a#a#a#a#a#a#a#a#a#a#a#a#a#a#a#a#a#a#a#a#a#a#a#a#a#a#ai#3ayQtQtQtQtQtQtQt",
"QtQtQtQtQtQtQtaR#3#7a#a#a#a#a#a#a#a#a#a#a#a#a#a#a#a#a#a#a#a#a#a#a#a#a#a#a#a#a#a#ai#3ayQtQtQtQtQtQtQt",
"QtQtQtQtQtQtQtaS#3aia#a#a#a#a#a#a#a#a#a#a#a#a#a#a#a#a#a#a#a#a#a#a#a#a#a#a#a#a#a#ai#3ayQtQtQtQtQtQtQt",
"QtQtQtQtQtQtQtaT#3aia#a#a#a#a#a#a#a#a#a#a#a#a#a#a#a#a#a#a#a#a#a#a#a#a#a#a#a#a#a#ai#3ayQtQtQtQtQtQtQt",
"QtQtQtQtQtQtQtaU#3aVa#a#a#a#a#a#a#a#a#a#a#a#a#a#a#a#a#a#a#a#a#a#a#a#a#a#a#a#a#a#ai#3ayQtQtQtQtQtQtQt",
"QtQtQtQtQtQtQtaW#3#4a#a#a#a#a#a#a#a#a#a#a#a#a#a#a#a#a#a#a#a#a#a#a#a#a#a#a#a#a#a#ai#3ayQtQtQtQtQtQtQt",
"QtQtQtQtQtQtQtaX#3aEaEaEaEaEaEaEaCaCaCaCaCaCaCaCaCaCaCaBaBaYaYaBaBaYaYaZaZaZaYaYaZ#3ayQtQtQtQtQtQtQt",
"QtQtQtQtQtQtQta0#3#3#3#3#3#3#3#3#3#3#3#3#3#3#3#3#3#3#3#3#3#3#3#3#3#3#3#3#3#3#3#3#3#3ayQtQtQtQtQtQtQt",
"QtQtQtQtQtQtQtQta1a2a3a3a4a4a5a5a6a6a6a6a7a7a8a8a9a9b.b.b#b#bababbbba0a0bcbcaXaXaWaWbdQtQtQtQtQtQtQt",
"QtQtQtQtQtQtQtQtQtQtQtQtQtQtQtQtQtQtQtQtQtQtQtQtQtQtQtQtQtQtQtQtQtQtQtQtQtQtQtQtQtQtQtQtQtQtQtQtQtQt",
"QtQtQtQtQtQtQtQtQtQtQtQtQtQtQtQtQtQtQtQtQtQtQtQtQtQtQtQtQtQtQtQtQtQtQtQtQtQtQtQtQtQtQtQtQtQtQtQtQtQt",
"QtQtQtQtQtQtQtQtQtQtQtQtQtQtQtQtQtQtQtQtQtQtQtQtQtQtQtQtQtQtQtQtQtQtQtQtQtQtQtQtQtQtQtQtQtQtQtQtQtQt",
"QtQtQtQtQtQtQtQtQtQtQtQtQtQtQtQtQtQtQtQtQtQtQtQtQtQtQtQtQtQtQtQtQtQtQtQtQtQtQtQtQtQtQtQtQtQtQtQtQtQt"};
