<svg version="1.1" viewBox="0 0 32 32" xmlns="http://www.w3.org/2000/svg" xmlns:xlink="http://www.w3.org/1999/xlink">
 <defs>
  <pattern id="Strips1_1" width="2" height="1" patternTransform="translate(0) scale(10)" patternUnits="userSpaceOnUse">
   <rect y="-.5" width="1" height="2"/>
  </pattern>
  <path id="H" d="m24 8c-8.864 0-16 7.136-16 16h16v-16" fill="url(#0)"/>
  <linearGradient id="0" x1="8" x2="24" y1="24" y2="8" gradientUnits="userSpaceOnUse">
   <stop stop-color="#e81877" offset="0"/>
   <stop stop-color="#dd1d8c" offset=".312"/>
   <stop stop-color="#6d57b1" offset=".562"/>
   <stop stop-color="#2a78c1" offset=".75"/>
   <stop stop-color="#018dcb" offset="1"/>
  </linearGradient>
  <filter id="filter1111" x="0" y="0" width="1" height="1" color-interpolation-filters="sRGB">
   <feColorMatrix values="-2.55296 -2.43806 -3.36177 -2.53413 0 -2.55296 -2.43806 -3.36177 -2.53413 0 -2.55296 -2.43806 -3.36177 -2.53413 0 0 0 0 1 0 "/>
  </filter>
  <filter id="filter1115" x="0" y="0" width="1" height="1" color-interpolation-filters="sRGB">
   <feColorMatrix values="-2.55296 -2.43806 -3.36177 -2.53413 0 -2.55296 -2.43806 -3.36177 -2.53413 0 -2.55296 -2.43806 -3.36177 -2.53413 0 0 0 0 1 0 "/>
  </filter>
  <linearGradient id="linearGradient5029" x1="4.0637" x2="15.934" y1="15.976" y2="15.976" gradientUnits="userSpaceOnUse">
   <stop offset="0"/>
   <stop stop-opacity="0" offset="1"/>
  </linearGradient>
  <linearGradient id="linearGradient5037" x1="7.5795" x2="24.387" y1="10.005" y2="10.005" gradientUnits="userSpaceOnUse">
   <stop offset="0"/>
   <stop stop-opacity="0" offset="1"/>
  </linearGradient>
 </defs>
 <use transform="matrix(.52984 .52984 -.52984 .52984 15.999 -9.4223)" width="100%" height="100%" clip-path="url(#9)" fill="#000000" filter="url(#filter1111)" opacity=".35" xlink:href="#H"/>
 <g>
  <path d="m7.5205 24.46c-4.6965-4.6965-4.6965-12.258 0-16.955l8.4775 8.4775-8.4775 8.4775" clip-path="url(#A)" filter="url(#filter1115)" opacity=".35" stroke-width=".74931"/>
  <path d="m11.794 11.718-4.2055-4.2058 0.29455-0.27977c1.0461-0.99362 2.6185-1.9611 3.9915-2.456 3.1348-1.1298 6.4616-0.95145 9.4078 0.50446 1.0365 0.51223 2.3195 1.4076 2.9448 2.0551l0.20191 0.20909-4.1891 4.1893c-2.304 2.3041-4.2006 4.1893-4.2147 4.1893-0.01409 0-1.9181-1.8926-4.2312-4.2058z" opacity=".6617" stroke-width=".050794"/>
  <path d="m7.2123 24.093c-1.721-1.8576-2.8461-4.3303-3.1207-6.8589-0.0773-0.71182-0.065836-1.9503 0.024833-2.6829 0.30106-2.4324 1.2969-4.6337 2.9478-6.516l0.44161-0.50352 8.4433 8.4433-8.4392 8.4392z" opacity=".6617" stroke-width=".050794"/>
 </g>
 <g>
  <path d="m11.794 11.718-4.1785-4.1787 0.26748-0.25712c0.44303-0.42587 0.79975-0.70559 1.4744-1.1561 2.0342-1.3585 4.1969-2.0142 6.6387-2.013 1.3618 6.757e-4 2.4384 0.17109 3.6987 0.58548 1.5444 0.50779 3.5103 1.6822 4.4543 2.661l0.20191 0.20934-4.1637 4.1639c-2.29 2.2902-4.1752 4.1639-4.1893 4.1639-0.0141 0-1.9059-1.8804-4.2041-4.1787z" fill="url(#linearGradient5037)" opacity=".6617"/>
  <g stroke-width=".050794">
   <path d="m20.074 11.646 4.2776-4.0772 0.25064 0.27356c0.41514 0.45311 0.68623 0.81643 1.1205 1.5017 1.3094 2.0662 1.9131 4.2439 1.8534 6.6851-0.0333 1.3614-0.22946 2.4336-0.67392 3.6837-0.54464 1.5318-1.7658 3.469-2.767 4.3893l-0.21412 0.19684-4.063-4.2623c-2.2346-2.3442-4.0627-4.2738-4.0624-4.2879 3.38e-4 -0.0141 1.9255-1.8603 4.2782-4.1028z" fill="#fff" opacity=".6617" stroke="#000"/>
   <path d="m7.1901 24.017c-1.5694-1.7088-2.6857-4.0751-3.0196-6.4008-0.10466-0.72893-0.10873-2.4787-0.0074163-3.1908 0.23326-1.6393 0.76125-3.1495 1.5852-4.5342 0.33935-0.57026 1.0434-1.5181 1.4731-1.9831l0.29609-0.32043 8.3808 8.387-8.3894 8.3894z" fill="url(#linearGradient5029)" opacity=".6617" stroke="url(#Strips1_1)"/>
   <path d="m19.844 20.021 4.0768 4.278-0.27359 0.25062c-0.45314 0.41509-0.81649 0.68615-1.5018 1.1204-2.0663 1.3092-4.2441 1.9127-6.6852 1.8528-1.3614-0.03343-2.4336-0.22969-3.6836-0.67427-1.5317-0.54479-3.4688-1.7661-4.389-2.7674l-0.19681-0.21414 4.2626-4.0626c2.3445-2.2344 4.2742-4.0623 4.2883-4.062 0.0141 3.39e-4 1.8602 1.9257 4.1024 4.2786z" fill="#fff" opacity=".6617" stroke="#000"/>
  </g>
 </g>
</svg>
